<svg xmlns="http://www.w3.org/2000/svg" viewBox="0 0 64 64" role="img" aria-label="SCALE icon">
  <defs>
    <linearGradient id="bg" x1="0" y1="0" x2="1" y2="1">
      <stop offset="0" stop-color="#2563eb" />
      <stop offset="1" stop-color="#0f172a" />
    </linearGradient>
  </defs>
  <rect x="4" y="4" width="56" height="56" rx="14" fill="url(#bg)" />
  <path
    d="M43.3 22.8c-2.2-3-5.6-4.8-10.1-4.8c-6.2 0-10.5 3.2-10.5 8c0 3.9 2.8 6.3 8.2 7.3l4.7.9c2.6.5 3.7 1.5 3.7 3.2c0 2.2-2.1 3.5-5.7 3.5c-3.6 0-6.1-1.3-7.5-3.8l-4.9 2.7c2.1 4.1 6.5 6.4 12.3 6.4c6.9 0 11.6-3.3 11.6-8.5c0-4.1-2.7-6.5-8.5-7.6l-4.6-.9c-2.5-.5-3.5-1.3-3.5-2.8c0-1.9 1.9-3.2 4.8-3.2c3 0 5 1.1 6.3 3.1z"
    fill="#ffffff"
  />
</svg>
