<svg width="32" height="32" viewBox="0 0 32 32" fill="none" xmlns="http://www.w3.org/2000/svg">
<path d="M0 16C0 7.16344 7.16344 0 16 0V0C24.8366 0 32 7.16344 32 16V16C32 24.8366 24.8366 32 16 32V32C7.16344 32 0 24.8366 0 16V16Z" fill="white"/>
<path fill-rule="evenodd" clip-rule="evenodd" d="M1.24235 16C1.24235 24.1504 7.84958 30.7576 16 30.7576C24.1504 30.7576 30.7576 24.1504 30.7576 16C30.7576 7.84958 24.1504 1.24235 16 1.24235C7.84958 1.24235 1.24235 7.84958 1.24235 16ZM16 0C7.16344 0 0 7.16344 0 16C0 24.8366 7.16344 32 16 32C24.8366 32 32 24.8366 32 16C32 7.16344 24.8366 0 16 0Z" fill="black"/>
<path d="M10.7206 20.0745C11.2245 21.9551 13.1066 23.6575 17.0007 22.6141C20.7163 21.6185 23.0449 18.562 22.4411 16.3085C22.2326 15.5303 21.6045 15.0036 20.6362 15.0893L11.9779 15.8107C11.4327 15.8525 11.1826 15.7632 11.0384 15.4195C10.8985 15.0921 10.9782 14.7406 11.6368 14.4078L18.2259 11.0263C18.7309 10.7693 19.0673 10.6618 19.3747 10.7706C19.5674 10.8406 19.6942 11.1194 19.5777 11.4634L19.1505 12.7246C18.6262 14.2726 19.7486 14.6321 20.3813 14.4626C21.3386 14.206 21.5639 13.2943 21.2554 12.1432C20.4735 9.2251 17.3776 8.76885 14.5706 9.52097C11.7149 10.2861 9.23952 12.6001 9.99537 15.421C10.1735 16.0857 10.7853 16.6168 11.494 16.6006L12.5759 16.598C12.7984 16.5929 12.7183 16.6112 13.1475 16.5756C13.5768 16.54 14.7231 16.399 14.7231 16.399L20.3483 15.7624L20.4932 15.7413C20.8222 15.6852 21.0708 15.7707 21.281 16.1328C21.5956 16.6747 21.1157 17.0833 20.5411 17.5725C20.5258 17.5856 20.5103 17.5987 20.4948 17.6119L15.5501 21.8734C14.7026 22.6044 14.1072 22.3295 13.8987 21.5513L13.1602 18.7953C12.9778 18.1144 12.3129 17.5801 11.5341 17.7888C10.5606 18.0497 10.4817 19.1829 10.7206 20.0745Z" fill="black"/>
</svg>
