<svg width="256" height="256" viewBox="0 0 256 256" fill="none" xmlns="http://www.w3.org/2000/svg">
<path d="M0 128C0 57.3076 57.3076 0 128 0V0C198.692 0 256 57.3076 256 128V128C256 198.692 198.692 256 128 256V256C57.3076 256 0 198.692 0 128V128Z" fill="white"/>
<path fill-rule="evenodd" clip-rule="evenodd" d="M9.93882 128C9.93882 193.203 62.7966 246.061 128 246.061C193.203 246.061 246.061 193.203 246.061 128C246.061 62.7966 193.203 9.93882 128 9.93882C62.7966 9.93882 9.93882 62.7966 9.93882 128ZM128 0C57.3076 0 0 57.3076 0 128C0 198.692 57.3076 256 128 256C198.692 256 256 198.692 256 128C256 57.3076 198.692 0 128 0Z" fill="black"/>
<path d="M85.7646 160.596C89.7958 175.641 104.853 189.26 136.006 180.913C165.73 172.948 184.359 148.496 179.529 130.468C177.861 124.243 172.836 120.029 165.09 120.714L95.8234 126.486C91.4613 126.82 89.4611 126.105 88.3071 123.356C87.1879 120.737 87.8257 117.925 93.0944 115.262L145.807 88.2102C149.847 86.1546 152.539 85.2945 154.998 86.1647C156.539 86.7248 157.554 88.9549 156.622 91.7068L153.204 101.797C149.01 114.18 157.989 117.057 163.051 115.7C170.709 113.648 172.511 106.354 170.044 97.1459C163.788 73.8008 139.02 70.1508 116.565 76.1678C93.7195 82.2891 73.9162 100.801 79.963 123.368C81.3878 128.686 86.2825 132.934 91.9519 132.805L100.607 132.784C102.387 132.743 101.746 132.889 105.18 132.605C108.614 132.32 117.785 131.192 117.785 131.192L162.786 126.099L163.946 125.931C166.578 125.482 168.567 126.166 170.248 129.063C172.765 133.398 168.925 136.667 164.329 140.58C164.206 140.685 164.083 140.79 163.959 140.895L124.401 174.987C117.621 180.835 112.858 178.636 111.19 172.411L105.282 150.362C103.822 144.915 98.5035 140.641 92.273 142.311C84.4848 144.397 83.8533 153.463 85.7646 160.596Z" fill="black"/>
</svg>
