<svg width="100" height="100" viewBox="0 0 100 100" fill="none" xmlns="http://www.w3.org/2000/svg">
<g clip-path="url(#clip0_8436_2526)">
<path fill-rule="evenodd" clip-rule="evenodd" d="M90.3168 24.0907L92.6766 18.3097C92.6766 18.3097 89.6733 15.0981 86.0273 11.4582C82.3809 7.8183 74.6592 9.95936 74.6592 9.95936L65.8651 0H50.4218H34.9785L26.1843 9.95936C26.1843 9.95936 18.4627 7.8183 14.8163 11.4582C11.17 15.0981 8.16715 18.3097 8.16715 18.3097L10.5266 24.0907L7.52368 32.6551C7.52368 32.6551 16.3554 66.0469 17.3903 70.1246C19.4279 78.1539 20.8221 81.2584 26.6134 85.3262C32.4046 89.3948 42.9147 96.4599 44.6306 97.5305C46.3465 98.6011 48.4914 100.425 50.4218 100.425C52.3522 100.425 54.4972 98.6011 56.213 97.5305C57.929 96.4599 68.4391 89.3948 74.2303 85.3262C80.0215 81.2584 81.4157 78.1539 83.4534 70.1246C84.488 66.0469 93.3201 32.6551 93.3201 32.6551L90.3168 24.0907Z" fill="url(#paint0_linear_8436_2526)"/>
<path fill-rule="evenodd" clip-rule="evenodd" d="M61.3618 18.0951C62.6488 18.0951 72.1936 16.2751 72.1936 16.2751C72.1936 16.2751 83.5052 29.9247 83.5052 32.842C83.5052 35.254 82.5323 36.1981 81.3867 37.3099C81.1468 37.5428 80.8992 37.783 80.6514 38.0457L72.17 47.036C72.0859 47.1251 71.9924 47.2191 71.8933 47.3185C71.0468 48.1682 69.8001 49.4194 70.6798 51.4974C70.7385 51.6363 70.799 51.7775 70.8604 51.9208C71.8249 54.1723 73.0154 56.9516 71.4999 59.7682C69.8878 62.764 67.1263 64.7635 65.3567 64.433C63.5871 64.1022 59.4314 61.9343 57.9031 60.944C56.375 59.9538 51.5313 55.9662 51.5313 54.4404C51.5313 53.1679 55.0147 51.051 56.7072 50.0225C57.0438 49.8179 57.3096 49.6563 57.4631 49.5531C57.6378 49.4356 57.93 49.2544 58.2896 49.0314C59.8345 48.0732 62.6237 46.3434 62.6938 45.5764C62.78 44.6307 62.7473 44.3534 61.5022 42.017C61.2373 41.5202 60.9276 40.988 60.6074 40.4381C59.4217 38.4017 58.094 36.1214 58.3879 34.488C58.7197 32.6442 61.614 31.587 64.0656 30.6915C64.372 30.5796 64.6715 30.4702 64.9582 30.3621C65.6737 30.0924 66.5727 29.7563 67.5119 29.4051C69.9596 28.4898 72.6793 27.4729 73.1278 27.2665C73.7487 26.9806 73.5882 26.7085 71.7078 26.5306C71.4591 26.5071 71.1497 26.4742 70.7947 26.4366C68.4669 26.1896 64.1738 25.7342 62.0866 26.315C61.6761 26.4292 61.2159 26.5536 60.7334 26.6841C58.3884 27.3179 55.5147 28.0948 55.2386 28.5426C55.1903 28.621 55.1428 28.6883 55.098 28.7519C54.8339 29.1267 54.6616 29.371 54.954 30.9636C55.0409 31.4378 55.2199 32.3706 55.4411 33.524C56.0888 36.901 57.0992 42.1688 57.2265 43.3522C57.2443 43.5179 57.2639 43.6777 57.2828 43.8315C57.4448 45.1517 57.5527 46.0303 56.0167 46.3808C55.8889 46.41 55.7546 46.4408 55.615 46.4728C53.8818 46.8698 51.3409 47.4518 50.4228 47.4518C49.5044 47.4518 46.9614 46.8693 45.2284 46.4722C45.0896 46.4404 44.956 46.4098 44.8289 46.3808C43.2928 46.0303 43.4006 45.1517 43.5627 43.8314C43.5815 43.6776 43.6011 43.5179 43.619 43.3522C43.7466 42.1671 44.7595 36.8864 45.4072 33.51C45.6272 32.3631 45.805 31.4359 45.8917 30.9636C46.1838 29.3712 46.0117 29.1268 45.7477 28.752C45.7028 28.6884 45.6554 28.621 45.6071 28.5426C45.331 28.0948 42.4574 27.318 40.1125 26.6841C39.6298 26.5537 39.1695 26.4292 38.7588 26.315C36.6718 25.7343 32.379 26.1896 30.0511 26.4366C29.6959 26.4742 29.3865 26.5071 29.1376 26.5306C27.2574 26.7085 27.0969 26.9806 27.7177 27.2665C28.1662 27.4729 30.8845 28.4893 33.3317 29.4043C34.2715 29.7557 35.1715 30.0922 35.8874 30.3621C36.1742 30.4703 36.4739 30.5797 36.7804 30.6917C39.2319 31.5872 42.126 32.6443 42.4577 34.488C42.7516 36.1212 41.4242 38.401 40.2388 40.4371C39.9184 40.9874 39.6084 41.5199 39.3435 42.017C38.0984 44.3534 38.0654 44.6307 38.1518 45.5764C38.2217 46.3433 41.0101 48.0726 42.555 49.0307C42.915 49.2541 43.2075 49.4355 43.3824 49.5531C43.5358 49.6563 43.8013 49.8176 44.1376 50.022C45.8299 51.0504 49.3142 53.1678 49.3142 54.4404C49.3142 55.9662 44.4707 59.9538 42.9425 60.944C41.4143 61.9343 37.2585 64.1022 35.4889 64.433C33.7194 64.7635 30.9578 62.764 29.3457 59.7682C27.8304 56.9518 29.0206 54.1728 29.9848 51.9213C30.0463 51.7778 30.1069 51.6365 30.1657 51.4974C31.0454 49.4192 29.7985 48.1679 28.9519 47.3182C28.8529 47.2189 28.7594 47.1251 28.6754 47.036C28.2114 46.5441 25.9255 44.1211 23.8036 41.8719C22.2568 40.2323 20.7972 38.6851 20.1941 38.0457C19.9463 37.7831 19.6988 37.5429 19.4589 37.31C18.3133 36.1981 17.3407 35.254 17.3407 32.842C17.3407 29.9247 28.6521 16.2751 28.6521 16.2751C28.6521 16.2751 38.1969 18.0951 39.4838 18.0951C40.5107 18.0951 42.4937 17.4134 44.5608 16.7028C45.0842 16.5229 45.613 16.3411 46.133 16.1681C48.7069 15.3116 50.4228 15.3054 50.4228 15.3054C50.4228 15.3054 52.1388 15.3116 54.7126 16.1681C55.2327 16.3411 55.7615 16.5229 56.2848 16.7028C58.352 17.4134 60.3349 18.0951 61.3618 18.0951ZM59.7239 66.3752C61.7415 67.4131 63.1728 68.1494 63.7141 68.4875C64.4141 68.9251 63.9871 69.7501 63.3494 70.2001C62.7115 70.6501 54.1403 77.2759 53.3085 78.0076C53.2021 78.1019 53.0892 78.2032 52.9716 78.309C52.1701 79.0299 51.1477 79.9502 50.4229 79.9502C49.6979 79.9502 48.6748 79.0292 47.8732 78.3082C47.7561 78.2024 47.6435 78.1012 47.5374 78.0076C46.7053 77.2759 38.1344 70.6501 37.4964 70.2001C36.8586 69.7501 36.4317 68.9251 37.1318 68.4875C37.6734 68.1492 39.1061 67.4122 41.1257 66.3733C41.7178 66.0688 42.3603 65.7383 43.0455 65.3843C46.0679 63.823 49.835 62.4955 50.4229 62.4955C51.0109 62.4955 54.7777 63.823 57.8005 65.3843C58.4872 65.7391 59.1309 66.0702 59.7239 66.3752Z" fill="white"/>
<path fill-rule="evenodd" clip-rule="evenodd" d="M74.6622 9.95935L65.868 0H50.4247H34.9814L26.1873 9.95935C26.1873 9.95935 18.4656 7.8183 14.8193 11.4582C14.8193 11.4582 25.1148 10.5304 28.6539 16.2756C28.6539 16.2756 38.1987 18.0956 39.4857 18.0956C40.7727 18.0956 43.561 17.0251 46.1349 16.1686C48.7088 15.3122 50.4247 15.306 50.4247 15.306C50.4247 15.306 52.1406 15.3122 54.7146 16.1686C57.2884 17.0251 60.0768 18.0956 61.3637 18.0956C62.6507 18.0956 72.1955 16.2756 72.1955 16.2756C75.7346 10.5304 86.0302 11.4582 86.0302 11.4582C82.3838 7.8183 74.6622 9.95935 74.6622 9.95935Z" fill="url(#paint1_linear_8436_2526)"/>
</g>
<defs>
<linearGradient id="paint0_linear_8436_2526" x1="7.52368" y1="101.134" x2="93.3201" y2="101.134" gradientUnits="userSpaceOnUse">
<stop stop-color="#FF5500"/>
<stop offset="0.409877" stop-color="#FF5500"/>
<stop offset="0.581981" stop-color="#FF2000"/>
<stop offset="1" stop-color="#FF2000"/>
</linearGradient>
<linearGradient id="paint1_linear_8436_2526" x1="16.3492" y1="18.0289" x2="86.0302" y2="18.0289" gradientUnits="userSpaceOnUse">
<stop stop-color="#FF452A"/>
<stop offset="1" stop-color="#FF2000"/>
</linearGradient>
<clipPath id="clip0_8436_2526">
<rect width="100" height="100" fill="white"/>
</clipPath>
</defs>
</svg>
