<svg width="100" height="100" viewBox="0 0 100 100" fill="none" xmlns="http://www.w3.org/2000/svg">
<g clip-path="url(#clip0_8436_2518)">
<path fill-rule="evenodd" clip-rule="evenodd" d="M47.6586 15.523C51.0854 15.523 54.2073 17.5241 55.6829 20.6618L67.439 45.7135C67.439 45.7135 67.439 45.7259 67.4268 45.7259C67.4268 45.7259 67.4268 45.7135 67.439 45.7135C70.1951 42.2918 72.1951 38.2647 73.0488 33.9412C74.0122 29.0618 78.6951 25.9118 83.5122 26.8753C84.6574 27.107 85.7463 27.5651 86.7167 28.2232C87.6871 28.8813 88.5199 29.7266 89.1677 30.7109C89.8155 31.6951 90.2655 32.799 90.492 33.9595C90.7185 35.1199 90.7171 36.3142 90.4878 37.4741C88.5122 47.4677 83 56.3988 75.5366 62.9583L79.8049 72.05C82.1708 77.09 79.6951 83.2541 74.4512 84.8353L74.2927 84.8847C73.5122 85.1071 72.7073 85.2183 71.9268 85.2183C68.5976 85.2183 65.4146 83.3159 63.8903 80.0794L60.0976 72.0006L52.3781 55.5465L48.5854 47.4677C48.503 47.2927 48.3733 47.145 48.2115 47.0415C48.0496 46.9381 47.8621 46.8832 47.6707 46.8832C47.4794 46.8832 47.2919 46.9381 47.13 47.0415C46.9682 47.145 46.8385 47.2927 46.7561 47.4677L42.8781 55.7194C36.9634 54.4471 31.0122 50.7412 27.6463 46.2324L39.6342 20.6865C40.3478 19.1414 41.482 17.8348 42.9034 16.9201C44.3249 16.0054 45.9745 15.5207 47.6586 15.523ZM14.061 37.7335C18.6098 35.8683 23.7927 38.0918 25.6342 42.7118C26.1098 43.91 26.7927 45.0835 27.6342 46.2077L27.6463 46.22L28.0488 46.7388C28.0854 46.7883 28.122 46.8253 28.1585 46.8747L28.2683 47.0106C28.3293 47.0724 28.3781 47.1465 28.439 47.2083C28.4512 47.2206 28.4634 47.233 28.4634 47.2453L28.439 47.2083C28.6707 47.4924 28.9268 47.7641 29.1829 48.0359C29.1951 48.0483 29.1951 48.0606 29.2073 48.0606C30.0488 48.95 30.9878 49.79 32 50.5683C32.4756 50.9388 32.9634 51.2847 33.4634 51.6306C33.5122 51.6553 33.5488 51.6924 33.5976 51.7171C36.4146 53.5947 39.6464 55.003 42.8659 55.6947C44.2317 55.9912 45.5976 56.1518 46.9268 56.1641H47.0976C48.8659 56.1641 50.6342 55.9418 52.3659 55.5218L60.0854 71.9759C55.9146 73.3965 51.5366 74.1747 47.0976 74.1747C43.0976 74.1747 39.0488 73.4706 35.122 72.1983L31.4268 80.0671C30.9108 81.1661 30.1802 82.1478 29.279 82.9527C28.3779 83.7576 27.325 84.369 26.1839 84.7501C25.0429 85.1311 23.8374 85.2738 22.6404 85.1696C21.4434 85.0653 20.2796 84.7163 19.2195 84.1435C14.9756 81.8583 13.4268 76.4724 15.4878 72.0747L19.5366 63.4524C14.9634 59.5365 11.3171 54.7806 9.20733 49.6171L9.14635 49.4565C7.31708 44.8488 9.5122 39.5988 14.061 37.7335Z" fill="black"/>
<path fill-rule="evenodd" clip-rule="evenodd" d="M47.6586 15.523C51.0854 15.523 54.2073 17.5241 55.6829 20.6618L67.439 45.7135C67.439 45.7135 67.439 45.7259 67.4268 45.7259C67.4268 45.7259 67.4268 45.7135 67.439 45.7135C70.1951 42.2918 72.1951 38.2647 73.0488 33.9412C74.0122 29.0618 78.6951 25.9118 83.5122 26.8753C84.6574 27.107 85.7463 27.5651 86.7167 28.2232C87.6871 28.8813 88.5199 29.7266 89.1677 30.7109C89.8155 31.6951 90.2655 32.799 90.492 33.9595C90.7185 35.1199 90.7171 36.3142 90.4878 37.4741C88.5122 47.4677 83 56.3988 75.5366 62.9583L79.8049 72.05C82.1708 77.09 79.6951 83.2541 74.4512 84.8353L74.2927 84.8847C73.5122 85.1071 72.7073 85.2183 71.9268 85.2183C68.5976 85.2183 65.4146 83.3159 63.8903 80.0794L60.0976 72.0006L52.3781 55.5465L48.5854 47.4677C48.503 47.2927 48.3733 47.145 48.2115 47.0415C48.0496 46.9381 47.8621 46.8832 47.6707 46.8832C47.4794 46.8832 47.2919 46.9381 47.13 47.0415C46.9682 47.145 46.8385 47.2927 46.7561 47.4677L42.8781 55.7194C36.9634 54.4471 31.0122 50.7412 27.6463 46.2324L39.6342 20.6865C40.3478 19.1414 41.482 17.8348 42.9034 16.9201C44.3249 16.0054 45.9745 15.5207 47.6586 15.523ZM14.061 37.7335C18.6098 35.8683 23.7927 38.0918 25.6342 42.7118C26.1098 43.91 26.7927 45.0835 27.6342 46.2077L27.6463 46.22L28.0488 46.7388C28.0854 46.7883 28.122 46.8253 28.1585 46.8747L28.2683 47.0106C28.3293 47.0724 28.3781 47.1465 28.439 47.2083C28.4512 47.2206 28.4634 47.233 28.4634 47.2453L28.439 47.2083C28.6707 47.4924 28.9268 47.7641 29.1829 48.0359C29.1951 48.0483 29.1951 48.0606 29.2073 48.0606C30.0488 48.95 30.9878 49.79 32 50.5683C32.4756 50.9388 32.9634 51.2847 33.4634 51.6306C33.5122 51.6553 33.5488 51.6924 33.5976 51.7171C36.4146 53.5947 39.6464 55.003 42.8659 55.6947C44.2317 55.9912 45.5976 56.1518 46.9268 56.1641H47.0976C48.8659 56.1641 50.6342 55.9418 52.3659 55.5218L60.0854 71.9759C55.9146 73.3965 51.5366 74.1747 47.0976 74.1747C43.0976 74.1747 39.0488 73.4706 35.122 72.1983L31.4268 80.0671C30.9108 81.1661 30.1802 82.1478 29.279 82.9527C28.3779 83.7576 27.325 84.369 26.1839 84.7501C25.0429 85.1311 23.8374 85.2738 22.6404 85.1696C21.4434 85.0653 20.2796 84.7163 19.2195 84.1435C14.9756 81.8583 13.4268 76.4724 15.4878 72.0747L19.5366 63.4524C14.9634 59.5365 11.3171 54.7806 9.20733 49.6171L9.14635 49.4565C7.31708 44.8488 9.5122 39.5988 14.061 37.7335Z" fill="white"/>
<path d="M67.439 45.7135L55.6829 20.6618C54.2073 17.5241 51.0854 15.523 47.6586 15.523C45.9745 15.5207 44.3249 16.0054 42.9034 16.9201C41.482 17.8348 40.3478 19.1414 39.6342 20.6865L27.6463 46.2324C31.0122 50.7412 36.9634 54.4471 42.8781 55.7194L46.7561 47.4677C46.8385 47.2927 46.9682 47.145 47.13 47.0415C47.2919 46.9381 47.4794 46.8832 47.6707 46.8832C47.8621 46.8832 48.0496 46.9381 48.2115 47.0415C48.3733 47.145 48.503 47.2927 48.5854 47.4677L52.3781 55.5465M67.439 45.7135C67.439 45.7135 67.439 45.7259 67.4268 45.7259C67.4268 45.7259 67.4268 45.7135 67.439 45.7135ZM67.439 45.7135C70.1951 42.2918 72.1951 38.2647 73.0488 33.9412C74.0122 29.0618 78.6951 25.9118 83.5122 26.8753C84.6574 27.107 85.7463 27.5651 86.7167 28.2232C87.6871 28.8813 88.5199 29.7266 89.1677 30.7109C89.8155 31.6951 90.2655 32.799 90.492 33.9595C90.7185 35.1199 90.7171 36.3142 90.4878 37.4741C88.5122 47.4677 83 56.3988 75.5366 62.9583L79.8049 72.05C82.1708 77.09 79.6951 83.2541 74.4512 84.8353L74.2927 84.8847C73.5122 85.1071 72.7073 85.2183 71.9268 85.2183C68.5976 85.2183 65.4146 83.3159 63.8903 80.0794L60.0976 72.0006L52.3781 55.5465M52.3781 55.5465H52.4025M28.439 47.2083C28.3781 47.1465 28.3293 47.0724 28.2683 47.0106L28.1585 46.8747C28.122 46.8253 28.0854 46.7883 28.0488 46.7388L27.6463 46.22L27.6342 46.2077C26.7927 45.0835 26.1098 43.91 25.6342 42.7118C23.7927 38.0918 18.6098 35.8683 14.061 37.7335C9.5122 39.5988 7.31708 44.8488 9.14635 49.4565L9.20733 49.6171C11.3171 54.7806 14.9634 59.5365 19.5366 63.4524L15.4878 72.0747C13.4268 76.4724 14.9756 81.8583 19.2195 84.1435C20.2796 84.7163 21.4434 85.0653 22.6404 85.1696C23.8374 85.2738 25.0429 85.1311 26.1839 84.7501C27.325 84.369 28.3779 83.7576 29.279 82.9527C30.1802 82.1478 30.9108 81.1661 31.4268 80.0671L35.122 72.1983C39.0488 73.4706 43.0976 74.1747 47.0976 74.1747C51.5366 74.1747 55.9146 73.3965 60.0854 71.9759L52.3659 55.5218C50.6342 55.9418 48.8659 56.1641 47.0976 56.1641H46.9268C45.5976 56.1518 44.2317 55.9912 42.8659 55.6947C39.6464 55.003 36.4146 53.5947 33.5976 51.7171C33.5488 51.6924 33.5122 51.6553 33.4634 51.6306C32.9634 51.2847 32.4756 50.9388 32 50.5683C30.9878 49.79 30.0488 48.95 29.2073 48.0606C29.1951 48.0606 29.1951 48.0483 29.1829 48.0359C28.9268 47.7641 28.6707 47.4924 28.439 47.2083ZM28.439 47.2083C28.4512 47.2206 28.4634 47.233 28.4634 47.2453L28.439 47.2083Z" stroke="white" stroke-width="15.3565" stroke-linejoin="round"/>
<path fill-rule="evenodd" clip-rule="evenodd" d="M35.122 72.1982L42.8659 55.6947C36.9513 54.4223 31 50.7165 27.6342 46.2076L19.5366 63.4523C24.0366 67.3188 29.4391 70.3576 35.122 72.1982Z" fill="#1A007F"/>
<path fill-rule="evenodd" clip-rule="evenodd" d="M67.4391 45.7135C63.5488 50.5435 58.1464 54.1259 52.3659 55.5217L60.0854 71.9759C65.7196 70.0488 70.9879 66.9359 75.5366 62.9459L67.4391 45.7135Z" fill="#4E000A"/>
<path fill-rule="evenodd" clip-rule="evenodd" d="M19.5366 63.4524L15.4878 72.0747C13.4268 76.46 14.9756 81.8583 19.2195 84.1436C23.7195 86.5647 29.2561 84.6747 31.4268 80.0671L35.122 72.1983C29.4159 70.3349 24.1223 67.3644 19.5366 63.4524Z" fill="#1A007F"/>
<path fill-rule="evenodd" clip-rule="evenodd" d="M83.5122 26.8877C82.3671 26.6554 81.1881 26.654 80.0424 26.8834C78.8968 27.1129 77.807 27.5687 76.8353 28.2248C75.8637 28.881 75.0291 29.7247 74.3794 30.7076C73.7297 31.6906 73.2776 32.7935 73.0488 33.9536C72.1951 38.2771 70.1951 42.3041 67.439 45.7259L75.5244 62.9706C82.9878 56.4112 88.5 47.48 90.4756 37.4865C91.439 32.5947 88.3171 27.8512 83.5122 26.8877Z" fill="#FF9396"/>
<path fill-rule="evenodd" clip-rule="evenodd" d="M52.3659 55.5218C50.6342 55.9418 48.8659 56.1641 47.0976 56.1641C45.7195 56.1641 44.2927 56.0036 42.8659 55.6947C36.9512 54.4224 31 50.7165 27.6342 46.2077C26.7927 45.0836 26.1098 43.91 25.6342 42.7118C23.7927 38.1041 18.6098 35.8806 14.061 37.7336C9.5122 39.5988 7.31708 44.8488 9.14635 49.4565C11.2317 54.6941 14.9146 59.4994 19.5366 63.4524C24.1179 67.3641 29.4074 70.3347 35.1098 72.1983C39.0244 73.4706 43.0854 74.1747 47.0854 74.1747C51.5244 74.1747 55.9025 73.3965 60.0732 71.9759L52.3659 55.5218Z" fill="#002DC8"/>
<path fill-rule="evenodd" clip-rule="evenodd" d="M79.7927 72.0377L75.5244 62.9459L67.4391 45.7135L67.4269 45.7259C67.4269 45.7259 67.4269 45.7135 67.4391 45.7135L55.683 20.6618C54.9613 19.1248 53.8245 17.8264 52.4044 16.917C50.9842 16.0075 49.3387 15.5241 47.6586 15.5229C44.2317 15.5229 41.1098 17.5241 39.6342 20.6618L27.6464 46.2077C31.0122 50.7165 36.9634 54.4224 42.8781 55.6947L46.7561 47.443C47.122 46.6647 48.2195 46.6647 48.5854 47.443L52.3781 55.5218L60.0976 71.9759L63.8903 80.0547C64.6114 81.5947 65.7497 82.8953 67.1726 83.8051C68.5954 84.715 70.2442 85.1965 71.9269 85.1935C72.7195 85.1935 73.5122 85.0824 74.2927 84.86C79.6464 83.3653 82.183 77.1271 79.7927 72.0377Z" fill="#FF536A"/>
<path fill-rule="evenodd" clip-rule="evenodd" d="M35.122 72.1982L42.8659 55.6947C36.9513 54.4223 31 50.7165 27.6342 46.2076L19.5366 63.4523C24.0366 67.3188 29.4391 70.3576 35.122 72.1982Z" fill="#1A007F"/>
<path fill-rule="evenodd" clip-rule="evenodd" d="M67.4391 45.7135C63.5488 50.5435 58.1464 54.1259 52.3659 55.5217L60.0854 71.9759C65.7196 70.0488 70.9879 66.9359 75.5366 62.9459L67.4391 45.7135Z" fill="#4E000A"/>
<path fill-rule="evenodd" clip-rule="evenodd" d="M19.5366 63.4524L15.4878 72.0747C13.4268 76.46 14.9756 81.8583 19.2195 84.1436C23.7195 86.5647 29.2561 84.6747 31.4268 80.0671L35.122 72.1983C29.4158 70.3349 24.1223 67.3644 19.5366 63.4524Z" fill="#1A007F"/>
<path fill-rule="evenodd" clip-rule="evenodd" d="M83.5122 26.8877C82.3671 26.6554 81.1881 26.654 80.0424 26.8834C78.8968 27.1128 77.807 27.5687 76.8353 28.2248C75.8637 28.881 75.0291 29.7247 74.3794 30.7076C73.7297 31.6906 73.2776 32.7935 73.0488 33.9535C72.1951 38.2771 70.1951 42.3041 67.439 45.7259L75.5244 62.9706C82.9878 56.4112 88.5 47.48 90.4756 37.4865C91.439 32.5947 88.3171 27.8512 83.5122 26.8877Z" fill="#FF9396"/>
<path fill-rule="evenodd" clip-rule="evenodd" d="M52.3659 55.5218C50.6342 55.9418 48.8659 56.1641 47.0976 56.1641C45.7195 56.1641 44.2927 56.0036 42.8659 55.6947C36.9512 54.4224 31 50.7165 27.6342 46.2077C26.7927 45.0836 26.1098 43.91 25.6342 42.7118C23.7927 38.1041 18.6098 35.8806 14.061 37.7336C9.5122 39.5988 7.31708 44.8488 9.14635 49.4565C11.2317 54.6941 14.9146 59.4994 19.5366 63.4524C24.1179 67.3641 29.4074 70.3347 35.1098 72.1983C39.0244 73.4706 43.0854 74.1747 47.0854 74.1747C51.5244 74.1747 55.9025 73.3965 60.0732 71.9759L52.3659 55.5218Z" fill="#002DC8"/>
<path fill-rule="evenodd" clip-rule="evenodd" d="M79.7927 72.0377L75.5244 62.9459L67.439 45.7135L67.4269 45.7259C67.4269 45.7259 67.4268 45.7135 67.439 45.7135L55.6829 20.6618C54.9613 19.1248 53.8245 17.8264 52.4044 16.9169C50.9842 16.0075 49.3387 15.5241 47.6586 15.5229C44.2317 15.5229 41.1098 17.5241 39.6342 20.6618L27.6464 46.2077C31.0122 50.7165 36.9634 54.4224 42.8781 55.6947L46.7561 47.4429C47.122 46.6647 48.2195 46.6647 48.5854 47.4429L52.3781 55.5218L60.0976 71.9759L63.8903 80.0547C64.6114 81.5947 65.7497 82.8953 67.1726 83.8051C68.5954 84.715 70.2442 85.1965 71.9268 85.1935C72.7195 85.1935 73.5122 85.0824 74.2927 84.86C79.6464 83.3653 82.183 77.1271 79.7927 72.0377Z" fill="#FF536A"/>
</g>
<defs>
<clipPath id="clip0_8436_2518">
<rect width="100" height="84" fill="white" transform="translate(0 8)"/>
</clipPath>
</defs>
</svg>
