<svg width="538" height="538" viewBox="0 0 538 538" fill="none" xmlns="http://www.w3.org/2000/svg">
<g clip-path="url(#clip0_6058_5681)">
<rect width="538" height="538" rx="20" fill="#55DB9C"/>
<path d="M508.271 633.625C426.255 740.57 260.8 799.632 39.3515 629.804C-171.947 467.76 -239.972 210.61 -141.694 82.4599C-107.756 38.2067 -53.6395 21.1424 6.02487 52.2571L540.727 327.615C574.496 344.727 592.854 345.629 611.177 327.469C628.793 310.231 632.999 285.638 599.687 246.913L267.756 -143.81C242.256 -173.615 223.587 -189.397 201.046 -190.577C186.87 -191.2 171.375 -176.728 169.721 -151.642L163.656 -59.6583C156.212 53.2302 74.9051 46.5145 38.9198 18.9175C-15.5196 -22.8318 -5.78798 -87.1126 44.4114 -152.57C171.677 -318.52 381.78 -265.741 541.407 -143.323C703.803 -18.7828 800.875 194.757 677.852 355.175C648.863 392.975 595.669 410.747 550.768 390.954L481.638 362.142C467.543 355.924 472.183 359.214 445.669 345.576C419.155 331.938 349.566 292.568 349.566 292.568L6.6242 102.933L-2.08877 97.7491C-21.6473 85.452 -39.8111 84.3359 -62.8442 101.933C-97.3091 128.264 -77.4294 167.106 -53.6316 213.604C-52.9948 214.848 -52.3552 216.098 -51.7138 217.353L151.743 620.826C186.601 690.02 231.958 688.2 265.896 643.947L386.091 487.217C415.787 448.495 472.456 431.924 516.746 465.89C572.108 508.347 547.157 582.918 508.271 633.625Z" fill="white" fill-opacity="0.7"/>
<path fill-rule="evenodd" clip-rule="evenodd" d="M24.7867 317.352L18.8946 338.531L17.9391 342.353L17.3021 346.334L16.8244 350.475L16.5059 354.615V358.756L16.8244 362.896L17.3021 367.037L18.0983 371.177L19.0538 375.477L20.3278 379.776L21.761 383.917L23.672 388.216L25.5829 392.357L27.9716 396.338L30.3603 400.319L33.0675 403.982L35.934 407.644L38.9596 411.307L42.1446 414.651L45.4888 417.836L48.9922 421.021L52.6549 424.047L56.4768 426.754L60.4579 429.461L64.5984 432.009L68.7388 434.398L73.0384 436.468L77.4973 438.538L81.9563 440.29L86.5744 442.042L91.1926 443.475L95.97 444.908L100.747 446.023L105.684 446.819L110.461 447.615L115.398 448.093L120.335 448.571L125.271 448.73L130.367 448.571L135.304 448.252L140.241 447.775L145.177 447.138L150.114 446.182L155.05 445.067L159.828 443.634L164.446 442.042L168.905 440.29L173.205 438.379L177.345 436.309L181.326 434.079L185.148 431.691L188.811 429.143L192.155 426.436L195.499 423.569L198.525 420.543L201.391 417.358L204.098 414.174L206.487 410.829L208.717 407.326L210.787 403.823L212.539 400.16L214.29 396.497L215.564 392.675L221.456 371.655L220.023 375.477L218.431 379.139L216.679 382.802L214.609 386.305L212.379 389.809L209.831 393.153L207.283 396.338L204.417 399.523L201.391 402.389L198.047 405.256L194.703 407.963L191.04 410.511L187.218 413.059L183.237 415.288L179.097 417.358L174.797 419.269L170.338 421.021L165.72 422.614L160.943 423.888L156.006 425.162L151.069 425.958L146.133 426.754L141.196 427.232L136.1 427.55H131.163L126.227 427.391L121.29 427.073L116.354 426.595L111.417 425.799L106.639 424.843L101.862 423.728L97.0847 422.454L92.4665 421.021L87.8484 419.269L83.3895 417.518L78.9306 415.448L74.6309 413.218L70.4905 410.829L66.3501 408.441L62.3689 405.733L58.547 402.867L54.8843 400.001L51.3809 396.816L48.0367 393.631L44.6925 390.127L41.6668 386.624L38.8004 382.961L36.2524 379.139L33.7045 375.317L31.475 371.177L29.4048 367.037L27.6531 362.896L26.2199 358.596L24.9459 354.456L23.8312 350.156L23.1942 346.016L22.5572 341.716L22.398 337.576V333.435L22.5572 329.295L23.035 325.314L23.8312 321.333L24.7867 317.352Z" fill="#FFD731" stroke="black" stroke-width="3.08936" stroke-linecap="round" stroke-linejoin="round"/>
<path fill-rule="evenodd" clip-rule="evenodd" d="M24.7876 317.352C21.6027 328.658 18.0992 339.009 16.8253 350.475C15.7105 369.903 20.1694 384.076 30.3612 400.319C52.4965 431.85 88.327 449.208 130.368 448.571C167.473 446.501 199.481 430.576 214.291 396.497L215.565 392.675L221.457 371.655L220.024 375.477C204.577 411.148 170.021 427.073 131.164 427.55C100.908 426.754 77.0205 417.677 54.8852 400.001C39.5975 386.465 30.6797 373.566 24.9468 354.456C22.3989 343.787 21.7619 336.302 23.0359 325.314L23.8321 321.333L24.7876 317.352Z" fill="#FFD731" stroke="black" stroke-width="3.08936" stroke-linecap="round" stroke-linejoin="round"/>
<path fill-rule="evenodd" clip-rule="evenodd" d="M86.5759 261.139C34.5022 274.674 8.86346 322.13 29.4063 367.038C49.9491 411.945 108.87 437.425 160.944 423.889C212.858 410.353 238.497 363.056 217.954 317.99C197.412 273.082 138.49 247.603 86.5759 261.139Z" fill="#FFD731" stroke="black" stroke-width="3.08936" stroke-linecap="round" stroke-linejoin="round"/>
<path fill-rule="evenodd" clip-rule="evenodd" d="M90.0775 269.101C43.0997 281.363 20.1682 324.041 38.6408 364.649C57.1134 405.257 110.302 428.188 157.28 416.086C204.257 403.824 227.348 360.986 208.716 320.378C190.244 279.93 137.055 256.839 90.0775 269.101Z" stroke="black" stroke-width="3.08936" stroke-linecap="round" stroke-linejoin="round"/>
<path fill-rule="evenodd" clip-rule="evenodd" d="M90.5579 271.329C44.3764 283.431 21.6041 325.632 39.9175 365.443C58.0716 405.414 110.464 428.027 156.645 416.084C202.986 403.981 225.599 361.94 207.445 321.969C189.132 281.998 136.899 259.385 90.5579 271.329Z" fill="#FFD731" stroke="black" stroke-width="3.08936" stroke-linecap="round" stroke-linejoin="round"/>
<path fill-rule="evenodd" clip-rule="evenodd" d="M92.8125 443.852C103.96 447.037 116.063 448.63 128.643 448.789C165.747 447.515 197.756 433.886 212.885 400.126L214.318 396.304L220.369 375.283L218.936 379.105C203.17 414.617 168.455 429.746 129.758 429.427C118.451 428.79 107.941 427.198 98.2269 424.331L92.8125 443.852Z" fill="black" stroke="black" stroke-width="3.08936" stroke-linejoin="bevel"/>
<path fill-rule="evenodd" clip-rule="evenodd" d="M105.142 294.946C51.9984 305.679 62.9936 346.78 83.0204 349.66C97.4188 351.754 157.63 336.963 163.521 338.796C167.447 340.105 169.411 344.555 167.447 347.435C165.222 350.838 152.656 363.666 149.253 367.462C144.803 372.436 141.007 376.101 136.949 380.551C134.724 383.038 127.132 393.902 119.802 386.311C116.791 383.3 109.33 370.734 106.581 366.415C95.1936 349.006 72.8106 359.87 92.1831 380.289C119.147 408.824 177.003 386.834 180.144 356.205C180.93 348.875 177.657 339.712 170.72 335.785C163.39 331.727 153.18 334.738 144.541 335.916C135.64 337.094 126.477 338.403 117.708 339.712C108.414 341.152 99.3823 342.592 90.2196 343.639C77.9155 345.21 74.5123 338.534 83.9367 333.167C88.9107 330.288 131.451 303.585 135.902 303.323C145.064 302.669 140.221 316.282 141.007 320.863C144.148 337.88 175.825 330.157 152.133 306.334C141.138 295.208 124.252 291.019 105.142 294.946Z" fill="black"/>
<path fill-rule="evenodd" clip-rule="evenodd" d="M396.136 4.12988L390.244 25.3097L389.289 29.1316L388.652 33.1128L388.174 37.2532L387.855 41.3936V45.534L388.174 49.6744L388.652 53.8149L389.448 57.9553L390.403 62.2549L391.677 66.5546L393.111 70.695L395.022 74.9947L396.933 79.1351L399.321 83.1162L401.71 87.0974L404.417 90.7601L407.284 94.4228L410.309 98.0854L413.494 101.43L416.838 104.615L420.342 107.799L424.004 110.825L427.826 113.532L431.808 116.24L435.948 118.788L440.088 121.176L444.388 123.246L448.847 125.317L453.306 127.068L457.924 128.82L462.542 130.253L467.32 131.687L472.097 132.801L477.034 133.597L481.811 134.394L486.748 134.871L491.684 135.349L496.621 135.508L501.717 135.349L506.654 135.031L511.59 134.553L516.527 133.916L521.463 132.96L526.4 131.846L531.177 130.413L535.796 128.82L540.255 127.068L544.554 125.157L548.695 123.087L552.676 120.858L556.498 118.469L560.16 115.921L563.505 113.214L566.849 110.347L569.874 107.322L572.741 104.137L575.448 100.952L577.837 97.6077L580.066 94.1043L582.136 90.6008L583.888 86.9382L585.64 83.2755L586.914 79.4536L592.806 58.433L591.373 62.2549L589.78 65.9176L588.029 69.5803L585.958 73.0837L583.729 76.5871L581.181 79.9313L578.633 83.1162L575.767 86.3012L572.741 89.1676L569.397 92.0341L566.053 94.7413L562.39 97.2892L558.568 99.8372L554.587 102.067L550.446 104.137L546.147 106.048L541.688 107.799L537.07 109.392L532.292 110.666L527.356 111.94L522.419 112.736L517.482 113.532L512.546 114.01L507.45 114.329H502.513L497.576 114.169L492.64 113.851L487.703 113.373L482.767 112.577L477.989 111.621L473.212 110.507L468.434 109.233L463.816 107.799L459.198 106.048L454.739 104.296L450.28 102.226L445.981 99.9964L441.84 97.6077L437.7 95.219L433.719 92.5118L429.897 89.6454L426.234 86.7789L422.73 83.594L419.386 80.4091L416.042 76.9056L413.016 73.4022L410.15 69.7395L407.602 65.9176L405.054 62.0957L402.825 57.9553L400.754 53.8149L399.003 49.6744L397.57 45.3748L396.296 41.2344L395.181 36.9347L394.544 32.7943L393.907 28.4946L393.748 24.3542V20.2138L393.907 16.0734L394.385 12.0922L395.181 8.11105L396.136 4.12988Z" fill="#FFD731" stroke="black" stroke-width="3.08936" stroke-linecap="round" stroke-linejoin="round"/>
<path fill-rule="evenodd" clip-rule="evenodd" d="M396.137 4.12988C392.952 15.4364 389.449 25.7874 388.175 37.2532C387.06 56.6813 391.519 70.8542 401.711 87.0974C423.846 118.628 459.677 135.986 501.718 135.349C538.822 133.279 570.831 117.354 585.641 83.2755L586.915 79.4536L592.807 58.433L591.374 62.2549C575.927 97.9262 541.37 113.851 502.514 114.329C472.257 113.532 448.37 104.455 426.235 86.7789C410.947 73.243 402.029 60.344 396.296 41.2344C393.748 30.5648 393.112 23.0802 394.385 12.0922L395.182 8.11105L396.137 4.12988Z" fill="#FFD731" stroke="black" stroke-width="3.08936" stroke-linecap="round" stroke-linejoin="round"/>
<path fill-rule="evenodd" clip-rule="evenodd" d="M457.925 -52.0841C405.852 -38.5482 380.213 8.90736 400.756 53.8149C421.299 98.7225 480.22 124.202 532.294 110.666C584.208 97.13 609.847 49.8338 589.304 4.76694C568.761 -40.1406 509.84 -65.6201 457.925 -52.0841Z" fill="#FFD731" stroke="black" stroke-width="3.08936" stroke-linecap="round" stroke-linejoin="round"/>
<path fill-rule="evenodd" clip-rule="evenodd" d="M461.427 -44.1216C414.449 -31.8597 391.518 10.8185 409.99 51.4264C428.463 92.0343 481.651 114.966 528.629 102.863C575.607 90.6011 598.698 47.7637 580.066 7.15579C561.593 -33.2929 508.405 -56.3836 461.427 -44.1216Z" stroke="black" stroke-width="3.08936" stroke-linecap="round" stroke-linejoin="round"/>
<path fill-rule="evenodd" clip-rule="evenodd" d="M461.908 -41.894C415.726 -29.7912 392.954 12.4092 411.267 52.2208C429.421 92.1917 481.813 114.805 527.995 102.861C574.336 90.7585 596.949 48.7174 578.795 8.74648C560.481 -31.2244 508.248 -53.8375 461.908 -41.894Z" fill="#FFD731" stroke="black" stroke-width="3.08936" stroke-linecap="round" stroke-linejoin="round"/>
<path fill-rule="evenodd" clip-rule="evenodd" d="M464.162 130.63C475.309 133.814 487.412 135.407 499.993 135.566C537.097 134.292 569.106 120.663 584.234 86.903L585.667 83.0811L591.719 62.0605L590.285 65.8825C574.52 101.394 539.804 116.523 501.107 116.204C489.801 115.567 479.291 113.975 469.576 111.109L464.162 130.63Z" fill="black" stroke="black" stroke-width="3.08936" stroke-linejoin="bevel"/>
<path fill-rule="evenodd" clip-rule="evenodd" d="M476.491 -18.2756C423.348 -7.54221 434.343 33.5587 454.37 36.4384C468.768 38.5327 528.98 23.7416 534.87 25.5741C538.797 26.8831 540.76 31.3335 538.797 34.2132C536.572 37.6164 524.006 50.4441 520.603 54.24C516.152 59.214 512.356 62.8791 508.299 67.3295C506.073 69.8165 498.482 80.6808 491.151 73.0889C488.141 70.0783 480.68 57.5124 477.931 53.1929C466.543 35.7839 444.16 46.6482 463.533 67.0677C490.497 95.6027 548.352 73.6124 551.494 42.9831C552.279 35.653 549.007 26.4904 542.069 22.5635C534.739 18.5058 524.53 21.5164 515.891 22.6944C506.99 23.8725 497.827 25.1814 489.057 26.4904C479.764 27.9302 470.732 29.3701 461.569 30.4172C449.265 31.988 445.862 25.3123 455.286 19.9457C460.26 17.066 502.801 -9.63653 507.251 -9.89832C516.414 -10.5528 511.571 3.06025 512.356 7.64156C515.498 24.6579 547.174 16.9351 523.482 -6.88774C512.487 -18.0138 495.602 -22.2024 476.491 -18.2756Z" fill="black"/>
<g clip-path="url(#clip1_6058_5681)">
<path fill-rule="evenodd" clip-rule="evenodd" d="M313.605 15.0637L297.921 6.18315L295.07 4.66639L292.028 3.37149L288.829 2.17175L285.598 1.09871L282.304 0.279059L278.947 -0.287206L275.558 -0.726778L272.106 -0.912962L268.497 -1.00398L264.824 -0.841607L261.246 -0.521017L257.447 0.148129L253.775 0.848799L250.134 1.96108L246.494 3.07335L243.044 4.50207L239.563 6.05747L236.05 7.73957L232.759 9.61142L229.563 11.6415L226.335 13.7982L223.203 16.1132L220.293 18.6179L217.351 21.2494L214.504 24.039L211.784 26.8601L209.286 29.871L206.756 33.0086L204.48 36.2093L202.172 39.5366L200.118 42.927L198.032 46.4441L196.199 50.0242L194.588 53.7941L193.009 57.4373L191.652 61.2702L190.294 65.1031L189.19 68.9991L188.308 73.0848L187.584 77.0754L186.987 81.0975L186.517 85.1511L186.299 89.2677L186.209 93.4159L186.404 97.5004L186.756 101.49L187.267 105.384L187.936 109.183L188.764 112.887L189.749 116.496L190.893 120.009L192.195 123.427L193.687 126.624L195.305 129.852L197.113 132.858L199.08 135.769L201.078 138.553L203.266 141.116L205.611 143.583L207.989 145.924L210.556 148.042L213.123 150.161L215.912 151.931L231.469 160.78L228.712 158.883L226.113 156.891L223.546 154.773L221.169 152.432L218.823 149.965L216.667 147.276L214.637 144.618L212.671 141.707L210.989 138.732L209.371 135.504L207.879 132.308L206.577 128.89L205.306 125.345L204.321 121.736L203.493 118.032L202.824 114.233L202.313 110.339L201.961 106.349L201.893 102.296L201.857 98.1167L202.2 94.0316L202.544 89.9464L203.141 85.9244L203.897 81.8071L204.874 77.8796L205.978 73.9836L207.209 70.1192L208.566 66.2863L210.177 62.5164L211.883 58.9047L213.715 55.3246L215.675 51.776L217.729 48.3856L220.037 45.0583L222.313 41.8576L224.843 38.72L227.468 35.7406L230.188 32.9195L232.908 30.0983L235.85 27.4669L238.887 24.9937L241.893 22.6472L245.12 20.4905L248.316 18.4604L251.765 16.4934L255.151 14.7798L258.633 13.2244L262.178 11.9539L265.723 10.6834L269.458 9.7293L273.162 8.90194L276.803 8.32796L280.507 8.0389L284.054 7.845L287.695 7.80932L291.115 8.1222L294.662 8.4666L297.988 9.15956L301.282 9.97921L304.544 10.9256L307.617 12.0938L310.627 13.5154L313.605 15.0637Z" fill="#FFD731" stroke="black" stroke-width="2.53279" stroke-linecap="round" stroke-linejoin="round"/>
<path fill-rule="evenodd" clip-rule="evenodd" d="M313.606 15.0623C305.241 10.2902 297.699 5.45376 288.83 2.17041C273.594 -2.56251 261.435 -1.82082 246.495 3.07201C217.027 14.4405 196.125 39.5103 188.309 73.0835C182.611 103.013 188.943 131.631 213.124 150.16L215.912 151.93L231.469 160.779L228.713 158.882C203.391 139.531 197.563 108.886 204.875 77.8783C211.498 53.9641 223.448 36.757 241.893 22.6459C255.689 13.1629 267.716 8.62161 284.054 7.84366C293.047 7.92874 299.128 8.90364 307.618 12.0924L310.627 13.514L313.606 15.0623Z" fill="#FFD731" stroke="black" stroke-width="2.53279" stroke-linecap="round" stroke-linejoin="round"/>
<path fill-rule="evenodd" clip-rule="evenodd" d="M346.097 75.3494C345.637 31.2409 312.958 1.44877 273.163 8.90217C233.369 16.3556 201.434 58.1882 201.894 102.297C202.386 146.278 234.938 176.039 274.859 168.617C314.654 161.164 346.589 119.331 346.097 75.3494Z" fill="#FFD731" stroke="black" stroke-width="2.53279" stroke-linecap="round" stroke-linejoin="round"/>
<path fill-rule="evenodd" clip-rule="evenodd" d="M339.072 76.5596C338.616 36.7575 309.202 10.0649 273.238 16.7224C237.274 23.38 208.501 61.1561 208.83 100.927C209.285 140.729 238.795 167.579 274.79 160.795C310.627 154.106 339.527 116.362 339.072 76.5596Z" stroke="black" stroke-width="2.53279" stroke-linecap="round" stroke-linejoin="round"/>
<path fill-rule="evenodd" clip-rule="evenodd" d="M337.202 76.4974C336.716 37.3604 307.65 10.889 272.351 17.5775C236.957 24.1078 208.595 61.3134 208.955 100.419C209.41 139.683 238.38 165.996 273.774 159.466C309.2 152.809 337.53 115.73 337.202 76.4974Z" fill="#FFD731" stroke="black" stroke-width="2.53279" stroke-linecap="round" stroke-linejoin="round"/>
<path fill-rule="evenodd" clip-rule="evenodd" d="M199.499 44.1407C194.758 52.3787 191.095 61.6922 188.478 71.6694C182.146 101.441 186.652 129.605 210.517 148.324L213.274 150.221L228.799 159.196L226.042 157.3C200.911 137.727 195.747 107.113 203.661 76.3892C206.406 67.5201 209.754 59.4736 213.957 52.3127L199.499 44.1407Z" fill="black" stroke="black" stroke-width="2.53279" stroke-linejoin="bevel"/>
</g>
<path fill-rule="evenodd" clip-rule="evenodd" d="M315.525 83.4267C317.506 39.0221 282.631 39.6332 276.375 54.9961C271.859 66.0366 271.706 116.868 269.082 121.191C267.264 124.056 263.334 124.737 261.432 122.605C259.165 120.161 251.447 107.624 249.101 104.165C246.025 99.6401 243.86 95.8946 241.123 91.7853C239.585 89.5226 232.444 81.332 239.935 77.0032C242.926 75.204 254.401 71.7558 258.381 70.424C274.486 64.8104 270.274 44.8522 250.193 56.2222C222.153 72.0256 228.195 122.408 251.941 130.97C257.617 133.046 265.555 132.257 270.052 127.515C274.732 122.486 274.358 113.768 275.131 106.661C275.955 99.3469 276.728 91.7981 277.423 84.5618C278.117 76.883 278.759 69.4125 279.74 61.9156C280.926 51.8158 286.911 50.4297 289.315 58.99C290.621 63.5173 303.444 102.648 302.771 106.241C301.478 113.66 291.606 107.112 287.806 106.83C273.646 105.96 273.52 132.69 297.163 118.558C308.191 112.013 314.866 99.4081 315.525 83.4267Z" fill="black"/>
<g clip-path="url(#clip2_6058_5681)">
<path fill-rule="evenodd" clip-rule="evenodd" d="M60.8959 15.3331L49.5596 22.786L47.564 24.1747L45.6519 25.7666L43.7491 27.4972L41.9203 29.2925L40.2396 31.217L38.7069 33.2708L37.2482 35.3893L35.9376 37.637L34.6363 40.0234L33.4831 42.5391L32.4686 45.0454L31.6114 47.8197L30.819 50.52L30.3132 53.3401L29.8074 56.1603L29.5789 58.9617L29.4245 61.8278L29.3441 64.7585L29.467 67.6058L29.7285 70.4437L30.0641 73.3462L30.5384 76.2394L31.2159 79.0492L31.9675 81.9237L32.8577 84.7887L33.8126 87.5797L34.9708 90.2874L36.203 93.0597L37.5645 95.6839L39 98.3728L40.5648 100.914L42.2036 103.519L43.9717 105.977L45.9431 108.351L47.8405 110.66L49.9412 112.886L52.0419 115.112L54.2719 117.19L56.7052 119.185L59.1291 121.041L61.6177 122.822L64.1709 124.53L66.8534 126.09L69.6006 127.576L72.403 128.849L75.196 129.983L77.9796 130.979L80.7539 131.836L83.5188 132.555L86.2743 133.135L89.0205 133.576L91.7572 133.878L94.4106 133.977L97.1286 134.003L99.7632 133.824L102.388 133.508L104.94 133.126L107.407 132.541L109.866 131.818L112.25 131.03L114.551 130.038L116.852 129.047L118.996 127.788L130.268 120.409L128.05 121.604L125.823 122.66L123.522 123.651L121.138 124.439L118.679 125.162L116.137 125.683L113.66 126.129L111.035 126.446L108.465 126.55L105.747 126.525L103.094 126.425L100.357 126.123L97.546 125.756L94.7905 125.176L92.0256 124.457L89.2513 123.6L86.4677 122.605L83.6746 121.47L80.9369 120.123L78.1251 118.711L75.5073 117.077L72.8894 115.443L70.4008 113.662L67.9029 111.741L65.6083 109.737L63.3783 107.659L61.2129 105.507L59.1122 103.281L57.1408 100.907L55.3081 98.5237L53.54 96.0662L51.8365 93.5348L50.2717 90.9939L48.8362 88.305L47.4747 85.6808L46.2425 82.9085L45.1489 80.1268L44.1941 77.3358L43.2392 74.5448L42.4876 71.6703L41.8747 68.7865L41.3358 65.9674L41.0002 63.0648L40.7387 60.2269L40.6064 57.2409L40.6222 54.3842L40.7766 51.5182L41.1437 48.7074L41.5108 45.8966L42.1553 43.0671L42.8738 40.3022L43.7403 37.6666L44.8195 35.0862L45.908 32.6445L47.1353 30.1935L48.5199 28.0104L49.9692 25.7533L51.5759 23.7641L53.2566 21.8396L55.0114 19.9797L56.8495 18.3231L58.8357 16.7958L60.8959 15.3331Z" fill="#FFD731" stroke="black" stroke-width="1.9065" stroke-linecap="round" stroke-linejoin="round"/>
<path fill-rule="evenodd" clip-rule="evenodd" d="M60.8978 15.3332C54.8277 19.2958 48.9974 22.6849 43.7509 27.4973C35.3463 36.0752 31.6656 44.4731 29.8093 56.1603C27.2987 79.8018 36.9072 102.415 56.7071 119.185C74.7942 133.284 96.1367 138.876 116.854 129.047L118.998 127.788L130.27 120.409L128.052 121.604C106.392 131.914 83.8651 125.288 65.6102 109.737C51.8695 97.0848 44.4511 83.1691 41.3377 65.9674C39.7264 53.4699 40.8174 43.8542 45.9099 32.6446C49.0567 26.6509 51.7988 22.9134 56.8514 18.3231L58.8376 16.7958L60.8978 15.3332Z" fill="#FFD731" stroke="black" stroke-width="1.9065" stroke-linecap="round" stroke-linejoin="round"/>
<path fill-rule="evenodd" clip-rule="evenodd" d="M112.437 14.286C82.7373 -0.560712 51.5562 11.0898 42.8754 40.3025C34.1946 69.5153 51.2392 105.277 80.9385 120.123C110.564 134.905 141.68 123.329 150.426 94.0421C159.107 64.8294 142.062 29.068 112.437 14.286Z" fill="#FFD731" stroke="black" stroke-width="1.9065" stroke-linecap="round" stroke-linejoin="round"/>
<path fill-rule="evenodd" clip-rule="evenodd" d="M110.832 19.409C84.018 6.03874 56.0346 16.5676 48.1369 42.9414C40.2392 69.3153 55.6533 101.565 82.4023 115.009C109.216 128.38 137.338 117.841 145.162 91.403C152.995 65.1031 137.645 32.7793 110.832 19.409Z" stroke="black" stroke-width="1.9065" stroke-linecap="round" stroke-linejoin="round"/>
<path fill-rule="evenodd" clip-rule="evenodd" d="M110.148 20.6391C83.7692 7.51808 56.0537 17.8895 48.4052 43.8286C40.618 69.7771 55.7914 101.556 82.1055 114.751C108.558 127.936 136.135 117.574 143.922 91.6259C151.636 65.6128 136.536 33.8989 110.148 20.6391Z" fill="#FFD731" stroke="black" stroke-width="1.9065" stroke-linecap="round" stroke-linejoin="round"/>
<path fill-rule="evenodd" clip-rule="evenodd" d="M41.1636 101.745C45.0522 107.75 50.0313 113.404 55.8143 118.584C73.5782 133.054 93.9887 139.713 114.725 130.161L116.943 128.967L128.288 121.652L126.071 122.847C104.327 132.954 82.0497 125.894 64.192 110.037C59.1951 105.152 54.9562 100.145 51.6045 94.8692L41.1636 101.745Z" fill="black" stroke="black" stroke-width="1.9065" stroke-linejoin="bevel"/>
</g>
<path fill-rule="evenodd" clip-rule="evenodd" d="M107.34 37.537C78.2811 20.9535 66.7076 44.5212 74.8475 53.9892C80.6899 60.8075 114.681 78.3742 116.675 81.617C117.969 83.8195 117.075 86.6851 114.994 87.2267C112.578 87.9053 101.53 88.7669 98.4072 89.1498C94.3195 89.6552 91.0673 89.8179 87.3746 90.2393C85.3308 90.492 77.3918 92.4601 77.0664 85.9558C76.8891 83.3343 78.5221 74.4648 78.9978 71.3412C80.7715 58.6265 65.9573 54.5904 66.673 71.9457C67.6231 96.1549 103.442 109.419 117.335 96.4571C120.676 93.3688 122.874 87.7815 121.244 83.1401C119.484 78.2785 113.516 75.5333 109.022 72.574C104.407 69.5085 99.6166 66.3975 95.0088 63.4459C90.1046 60.3426 85.322 57.3456 80.638 54.1129C74.2812 49.8484 75.4092 45.3639 81.9683 46.6951C85.4493 47.3757 116.062 52.2326 118.237 53.9175C122.762 57.3327 114.985 61.6943 113.49 64.1426C108.043 73.3273 125.901 82.5961 124.56 61.9056C123.965 52.2707 117.817 43.4694 107.34 37.537Z" fill="black"/>
<g clip-path="url(#clip3_6058_5681)">
<path fill-rule="evenodd" clip-rule="evenodd" d="M424.767 481.483L413.431 488.935L411.435 490.324L409.523 491.916L407.62 493.647L405.791 495.442L404.111 497.366L402.578 499.42L401.119 501.539L399.809 503.786L398.507 506.173L397.354 508.689L396.34 511.195L395.483 513.969L394.69 516.669L394.184 519.49L393.678 522.31L393.45 525.111L393.296 527.977L393.215 530.908L393.338 533.755L393.6 536.593L393.935 539.496L394.409 542.389L395.087 545.199L395.839 548.073L396.729 550.938L397.684 553.729L398.842 556.437L400.074 559.209L401.436 561.833L402.871 564.522L404.436 567.063L406.075 569.669L407.843 572.126L409.814 574.5L411.712 576.809L413.812 579.035L415.913 581.261L418.143 583.339L420.576 585.334L423 587.19L425.489 588.972L428.042 590.68L430.725 592.239L433.472 593.725L436.274 594.998L439.067 596.133L441.851 597.129L444.625 597.986L447.39 598.704L450.145 599.284L452.892 599.725L455.628 600.028L458.282 600.127L461 600.152L463.634 599.974L466.26 599.657L468.811 599.276L471.279 598.691L473.737 597.967L476.121 597.179L478.422 596.188L480.723 595.196L482.867 593.937L494.139 586.558L491.921 587.753L489.694 588.809L487.393 589.8L485.009 590.588L482.55 591.312L480.008 591.832L477.531 592.278L474.906 592.595L472.336 592.699L469.618 592.674L466.965 592.575L464.228 592.272L461.417 591.905L458.662 591.325L455.897 590.607L453.122 589.75L450.339 588.754L447.546 587.62L444.808 586.272L441.996 584.861L439.378 583.227L436.76 581.593L434.272 579.811L431.774 577.89L429.479 575.887L427.249 573.809L425.084 571.657L422.983 569.431L421.012 567.057L419.179 564.673L417.411 562.216L415.708 559.684L414.143 557.143L412.707 554.454L411.346 551.83L410.114 549.058L409.02 546.276L408.065 543.485L407.11 540.694L406.359 537.82L405.746 534.936L405.207 532.117L404.871 529.214L404.61 526.376L404.478 523.39L404.493 520.534L404.648 517.668L405.015 514.857L405.382 512.046L406.026 509.216L406.745 506.452L407.611 503.816L408.691 501.236L409.779 498.794L411.006 496.343L412.391 494.16L413.84 491.903L415.447 489.913L417.128 487.989L418.882 486.129L420.721 484.472L422.707 482.945L424.767 481.483Z" fill="#FFD731" stroke="black" stroke-width="1.9065" stroke-linecap="round" stroke-linejoin="round"/>
<path fill-rule="evenodd" clip-rule="evenodd" d="M424.769 481.484C418.699 485.446 412.869 488.835 407.622 493.648C399.217 502.226 395.537 510.623 393.68 522.311C391.17 545.952 400.778 568.565 420.578 585.335C438.665 599.435 460.008 605.026 480.725 595.197L482.869 593.938L494.141 586.559L491.923 587.754C470.263 598.064 447.736 591.439 429.481 575.888C415.741 563.235 408.322 549.319 405.209 532.118C403.598 519.62 404.689 510.005 409.781 498.795C412.928 492.801 415.67 489.064 420.723 484.474L422.709 482.946L424.769 481.484Z" fill="#FFD731" stroke="black" stroke-width="1.9065" stroke-linecap="round" stroke-linejoin="round"/>
<path fill-rule="evenodd" clip-rule="evenodd" d="M476.308 480.434C446.608 465.588 415.427 477.238 406.747 506.451C398.066 535.664 415.11 571.425 444.81 586.272C474.435 601.054 505.551 589.477 514.297 560.191C522.978 530.978 505.933 495.216 476.308 480.434Z" fill="#FFD731" stroke="black" stroke-width="1.9065" stroke-linecap="round" stroke-linejoin="round"/>
<path fill-rule="evenodd" clip-rule="evenodd" d="M474.703 485.557C447.889 472.187 419.906 482.716 412.008 509.09C404.11 535.464 419.524 567.714 446.273 581.158C473.087 594.528 501.209 583.99 509.033 557.551C516.866 531.252 501.516 498.928 474.703 485.557Z" stroke="black" stroke-width="1.9065" stroke-linecap="round" stroke-linejoin="round"/>
<path fill-rule="evenodd" clip-rule="evenodd" d="M474.019 486.789C447.64 473.667 419.925 484.039 412.276 509.978C404.489 535.926 419.662 567.705 445.977 580.9C472.429 594.086 500.006 583.724 507.793 557.775C515.507 531.762 500.407 500.048 474.019 486.789Z" fill="#FFD731" stroke="black" stroke-width="1.9065" stroke-linecap="round" stroke-linejoin="round"/>
<path fill-rule="evenodd" clip-rule="evenodd" d="M405.035 567.895C408.923 573.901 413.902 579.554 419.685 584.735C437.449 599.205 457.86 605.863 478.596 596.312L480.814 595.117L492.159 587.803L489.942 588.998C468.198 599.104 445.921 592.044 428.063 576.188C423.066 571.302 418.827 566.295 415.476 561.02L405.035 567.895Z" fill="black" stroke="black" stroke-width="1.9065" stroke-linejoin="bevel"/>
</g>
<path fill-rule="evenodd" clip-rule="evenodd" d="M471.211 503.686C442.152 487.103 430.579 510.671 438.719 520.139C444.561 526.957 478.553 544.524 480.547 547.766C481.84 549.969 480.946 552.835 478.865 553.376C476.449 554.055 465.401 554.916 462.278 555.299C458.191 555.805 454.938 555.967 451.246 556.389C449.202 556.641 441.263 558.61 440.938 552.105C440.76 549.484 442.393 540.614 442.869 537.491C444.643 524.776 429.828 520.74 430.544 538.095C431.494 562.304 467.313 575.568 481.207 562.607C484.547 559.518 486.746 553.931 485.115 549.289C483.355 544.428 477.387 541.683 472.893 538.723C468.278 535.658 463.488 532.547 458.88 529.595C453.976 526.492 449.193 523.495 444.509 520.262C438.152 515.998 439.28 511.513 445.839 512.845C449.32 513.525 479.933 518.382 482.108 520.067C486.633 523.482 478.856 527.844 477.361 530.292C471.914 539.477 489.773 548.746 488.431 528.055C487.836 518.42 481.688 509.619 471.211 503.686Z" fill="black"/>
<g clip-path="url(#clip4_6058_5681)">
<path fill-rule="evenodd" clip-rule="evenodd" d="M423.251 329.36L413.382 335.848L411.645 337.057L409.98 338.443L408.324 339.95L406.732 341.513L405.268 343.188L403.934 344.976L402.664 346.82L401.523 348.777L400.39 350.855L399.386 353.045L398.503 355.227L397.757 357.642L397.067 359.993L396.627 362.448L396.186 364.903L395.988 367.342L395.853 369.837L395.783 372.388L395.89 374.867L396.118 377.338L396.41 379.865L396.823 382.383L397.413 384.83L398.067 387.332L398.842 389.826L399.673 392.256L400.682 394.613L401.754 397.027L402.94 399.311L404.189 401.652L405.552 403.864L406.978 406.132L408.518 408.272L410.234 410.339L411.886 412.349L413.714 414.287L415.543 416.225L417.485 418.034L419.603 419.77L421.713 421.386L423.88 422.937L426.102 424.424L428.438 425.782L430.829 427.076L433.269 428.184L435.701 429.172L438.124 430.038L440.539 430.785L442.946 431.41L445.345 431.915L447.736 432.299L450.118 432.562L452.428 432.649L454.795 432.671L457.088 432.515L459.374 432.24L461.595 431.907L463.743 431.398L465.883 430.769L467.959 430.083L469.962 429.219L471.966 428.356L473.832 427.26L483.645 420.836L481.714 421.876L479.775 422.796L477.772 423.659L475.696 424.345L473.556 424.975L471.343 425.427L469.186 425.816L466.901 426.092L464.664 426.182L462.297 426.16L459.987 426.074L457.605 425.811L455.158 425.491L452.759 424.986L450.352 424.361L447.937 423.615L445.513 422.748L443.082 421.76L440.698 420.587L438.251 419.358L435.972 417.936L433.692 416.513L431.526 414.962L429.351 413.29L427.354 411.546L425.412 409.737L423.527 407.863L421.698 405.925L419.982 403.858L418.387 401.784L416.847 399.644L415.364 397.44L414.002 395.228L412.752 392.887L411.567 390.603L410.494 388.189L409.542 385.768L408.711 383.338L407.88 380.908L407.225 378.406L406.692 375.895L406.223 373.441L405.931 370.914L405.703 368.443L405.588 365.844L405.601 363.357L405.736 360.862L406.056 358.415L406.375 355.968L406.936 353.504L407.562 351.097L408.316 348.803L409.256 346.557L410.203 344.431L411.272 342.297L412.477 340.396L413.739 338.431L415.138 336.7L416.601 335.024L418.128 333.405L419.729 331.963L421.458 330.633L423.251 329.36Z" fill="#FFD731" stroke="black" stroke-width="1.65975" stroke-linecap="round" stroke-linejoin="round"/>
<path fill-rule="evenodd" clip-rule="evenodd" d="M423.253 329.361C417.968 332.811 412.892 335.761 408.325 339.951C401.008 347.419 397.804 354.73 396.188 364.904C394.002 385.486 402.367 405.172 419.604 419.772C435.35 432.046 453.931 436.914 471.967 428.358L473.833 427.261L483.646 420.837L481.715 421.877C462.858 430.853 443.247 425.085 427.355 411.547C415.393 400.532 408.934 388.417 406.224 373.442C404.821 362.562 405.771 354.191 410.204 344.432C412.944 339.214 415.331 335.96 419.73 331.964L421.459 330.635L423.253 329.361Z" fill="#FFD731" stroke="black" stroke-width="1.65975" stroke-linecap="round" stroke-linejoin="round"/>
<path fill-rule="evenodd" clip-rule="evenodd" d="M468.121 328.449C442.266 315.524 415.12 325.667 407.563 351.099C400.006 376.531 414.844 407.663 440.7 420.589C466.491 433.457 493.58 423.379 501.193 397.883C508.751 372.451 493.912 341.318 468.121 328.449Z" fill="#FFD731" stroke="black" stroke-width="1.65975" stroke-linecap="round" stroke-linejoin="round"/>
<path fill-rule="evenodd" clip-rule="evenodd" d="M466.725 332.909C443.382 321.27 419.02 330.436 412.145 353.396C405.269 376.356 418.688 404.432 441.975 416.137C465.318 427.776 489.801 418.602 496.612 395.585C503.431 372.689 490.068 344.549 466.725 332.909Z" stroke="black" stroke-width="1.65975" stroke-linecap="round" stroke-linejoin="round"/>
<path fill-rule="evenodd" clip-rule="evenodd" d="M466.128 333.98C443.164 322.557 419.035 331.586 412.377 354.168C405.597 376.758 418.807 404.424 441.715 415.911C464.744 427.39 488.752 418.37 495.531 395.779C502.246 373.133 489.101 345.524 466.128 333.98Z" fill="#FFD731" stroke="black" stroke-width="1.65975" stroke-linecap="round" stroke-linejoin="round"/>
<path fill-rule="evenodd" clip-rule="evenodd" d="M406.077 404.589C409.462 409.817 413.797 414.738 418.831 419.249C434.296 431.846 452.065 437.642 470.117 429.327L472.048 428.287L481.925 421.92L479.995 422.96C461.065 431.758 441.671 425.612 426.125 411.808C421.774 407.554 418.084 403.196 415.166 398.603L406.077 404.589Z" fill="black" stroke="black" stroke-width="1.65975" stroke-linejoin="bevel"/>
</g>
<path fill-rule="evenodd" clip-rule="evenodd" d="M463.688 348.692C438.39 334.254 428.314 354.772 435.4 363.014C440.487 368.95 470.079 384.243 471.815 387.066C472.941 388.984 472.163 391.479 470.351 391.95C468.248 392.541 458.63 393.291 455.911 393.624C452.352 394.064 449.521 394.206 446.306 394.573C444.527 394.793 437.615 396.506 437.332 390.844C437.178 388.561 438.599 380.84 439.014 378.121C440.558 367.052 427.661 363.538 428.284 378.647C429.111 399.723 460.294 411.27 472.389 399.986C475.298 397.297 477.211 392.433 475.792 388.392C474.26 384.16 469.064 381.77 465.152 379.194C461.134 376.525 456.964 373.817 452.952 371.247C448.683 368.545 444.519 365.936 440.442 363.122C434.907 359.409 435.889 355.505 441.6 356.664C444.63 357.257 471.281 361.485 473.174 362.952C477.113 365.925 470.343 369.722 469.042 371.854C464.299 379.85 479.847 387.919 478.678 369.906C478.161 361.518 472.809 353.856 463.688 348.692Z" fill="black"/>
<path fill-rule="evenodd" clip-rule="evenodd" d="M351.668 190.817L335.868 184.514L332.865 183.421L329.847 182.452L326.801 181.73L323.603 181.241L320.392 180.875L317.166 180.633L313.912 180.638L310.507 180.876L307.211 181.252L303.763 181.86L300.287 182.716L296.921 183.709L293.526 184.949L290.241 186.327L286.928 187.952L283.738 189.59L280.644 191.49L277.659 193.528L274.784 195.703L271.881 198.125L269.224 200.576L266.554 203.15L263.993 205.861L261.665 208.724L259.337 211.587L257.104 214.712L254.995 217.85L253.119 221.14L251.243 224.43L249.6 227.871L247.957 231.313L246.547 234.906L245.26 238.514L244.097 242.135L243.167 245.908L242.237 249.681L241.554 253.482L240.995 257.298L240.559 261.127L240.37 264.984L240.29 268.979L240.472 272.879L240.777 276.792L241.22 280.597L241.772 284.538L242.6 288.261L243.565 291.875L244.667 295.379L245.908 298.773L247.409 302.072L248.924 305.248L250.591 308.19L252.382 311.147L254.324 313.871L256.39 316.608L258.498 318.975L260.729 321.357L263.098 323.628L265.619 325.667L268.168 327.459L270.84 329.265L273.664 330.837L276.502 332.287L292.287 338.713L289.449 337.264L286.748 335.705L284.076 333.9L281.541 331.984L279.021 329.946L276.638 327.798L274.406 325.416L272.189 322.912L270.109 320.297L268.167 317.574L266.376 314.617L264.709 311.675L263.194 308.499L261.816 305.214L260.576 301.82L259.473 298.316L258.508 294.702L257.695 290.856L257.005 287.023L256.576 283.096L256.271 279.182L256.213 275.297L256.278 271.425L256.467 267.568L256.78 263.724L257.339 259.909L258.022 256.108L258.952 252.335L260.006 248.576L261.045 244.94L262.346 241.21L263.866 237.754L265.399 234.175L267.152 230.871L268.918 227.443L270.904 224.291L272.889 221.138L275.122 218.014L277.45 215.151L279.902 212.302L282.339 209.576L285.009 207.003L287.803 204.443L290.569 202.13L293.444 199.955L296.429 197.917L299.523 196.017L302.727 194.255L306.026 192.753L309.311 191.376L312.706 190.135L316.196 189.156L319.548 188.287L322.996 187.678L326.292 187.303L329.697 187.065L332.951 187.06L336.177 187.302L339.388 187.668L342.586 188.157L345.755 188.893L348.773 189.862L351.668 190.817Z" fill="#FFD731" stroke="black" stroke-width="2.99661" stroke-linejoin="bevel"/>
<path fill-rule="evenodd" clip-rule="evenodd" d="M351.667 190.82C343.288 187.489 335.444 183.843 326.801 181.733C311.829 179.152 300.427 181.483 286.928 187.954C260.391 202.326 243.887 228.6 240.558 261.129C238.888 290.094 248.414 316.329 273.664 330.84L276.502 332.289L292.287 338.716L289.449 337.267C263.034 321.997 253.856 293.8 256.779 263.727C260.193 240.342 269.234 222.477 285.009 207.005C296.735 196.328 307.542 190.426 322.995 187.681C331.373 186.633 337.344 186.937 345.755 188.896L348.773 189.865L351.667 190.82Z" fill="#FFD731" stroke="black" stroke-width="2.99661" stroke-linejoin="bevel"/>
<path fill-rule="evenodd" clip-rule="evenodd" d="M240.446 270.868C241.547 295.267 251.809 318.333 273.66 330.831L276.498 332.28L292.283 338.707L289.445 337.257C267.128 324.456 257.029 302.16 256.341 277.432L240.446 270.868Z" fill="black" stroke="black" stroke-width="2.99661" stroke-linejoin="bevel"/>
<path fill-rule="evenodd" clip-rule="evenodd" d="M389.811 243.713C383.91 202.125 349.473 178.184 312.701 190.139C276.053 202.108 251.1 245.439 257.001 287.027C262.902 328.615 297.462 352.57 334.111 340.601C370.882 328.646 395.712 285.301 389.811 243.713Z" fill="#FFD731" stroke="black" stroke-width="2.99661"/>
<path fill-rule="evenodd" clip-rule="evenodd" d="M383.44 245.859C378.077 208.336 346.888 186.642 313.743 197.509C280.736 208.266 258.142 247.36 263.505 284.883C268.868 322.406 300.057 344.1 333.064 333.343C366.208 322.477 388.679 283.368 383.44 245.859Z" fill="#FFD731" stroke="black" stroke-width="2.99661"/>
<path fill-rule="evenodd" clip-rule="evenodd" d="M381.541 246.021C376.369 209.02 345.631 187.753 313.023 198.305C280.401 208.98 258.248 247.5 263.544 284.515C268.73 321.392 299.453 342.782 332.075 332.107C364.683 321.555 386.85 282.912 381.541 246.021Z" fill="#FFD731" stroke="black" stroke-width="2.99661"/>
<path fill-rule="evenodd" clip-rule="evenodd" d="M320.013 180.76C323.224 181.126 327.545 182.744 325.404 187.255C325.404 187.255 331.079 185.774 334.551 186.044C338.642 186.385 341 187.654 341.741 187.738C345.803 188.326 332.705 183.581 332.581 183.567C330.223 182.298 319.766 180.732 320.013 180.76Z" fill="black" stroke="black" stroke-width="2.99661"/>
<path fill-rule="evenodd" clip-rule="evenodd" d="M324.592 228.681C290.949 240.044 287.099 272.813 298.118 274.187C305.925 275.064 344.746 259.973 347.713 261.273C349.724 262.032 349.635 265.626 347.912 267.96C345.696 270.804 335.253 281.853 332.363 285.068C328.439 289.466 325.368 292.541 321.937 296.427C319.966 298.471 312.893 307.665 310.376 301.961C309.497 299.699 308.253 289.828 307.717 286.445C305.344 272.932 289.628 282.882 295.827 298.556C304.446 320.255 343.696 299.357 353.132 274.364C355.356 268.556 355.699 261.198 352.597 258.507C349.361 255.515 342.634 258.443 337.385 259.837C331.906 261.252 326.262 262.837 320.783 264.252C315.024 265.848 309.495 267.423 303.785 268.858C296.249 270.765 295.906 265.649 302.809 260.679C306.424 258.024 337.648 234.399 340.397 233.847C345.845 232.902 339.748 244.038 339.034 247.843C336.665 261.46 357.013 253.598 349.227 235.413C345.516 227.006 336.635 224.509 324.592 228.681Z" fill="black" stroke="black" stroke-width="2.99661"/>
<path fill-rule="evenodd" clip-rule="evenodd" d="M427.946 205.25L422.842 217.888L421.957 220.292L421.17 222.707L420.581 225.145L420.178 227.705L419.875 230.278L419.67 232.861L419.663 235.469L419.842 238.198L420.132 240.841L420.608 243.605L421.282 246.393L422.066 249.094L423.049 251.818L424.142 254.455L425.433 257.115L426.735 259.676L428.247 262.162L429.87 264.56L431.603 266.872L433.534 269.206L435.489 271.343L437.542 273.491L439.706 275.553L441.993 277.427L444.279 279.302L446.775 281.102L449.283 282.802L451.913 284.317L454.542 285.831L457.295 287.159L460.047 288.487L462.921 289.629L465.807 290.672L468.705 291.616L471.725 292.374L474.746 293.132L477.789 293.692L480.844 294.153L483.911 294.515L487.001 294.679L490.202 294.756L493.328 294.624L496.465 294.393L499.514 294.05L502.675 293.621L505.66 292.971L508.559 292.21L511.37 291.338L514.094 290.355L516.743 289.163L519.293 287.96L521.656 286.634L524.031 285.209L526.22 283.662L528.421 282.016L530.324 280.335L532.24 278.555L534.068 276.664L535.71 274.651L537.154 272.615L538.61 270.48L539.88 268.222L541.051 265.953L546.253 253.326L545.082 255.596L543.824 257.754L542.369 259.889L540.825 261.914L539.183 263.927L537.454 265.829L535.539 267.609L533.524 269.378L531.423 271.035L529.234 272.582L526.859 274.007L524.495 275.333L521.946 276.537L519.309 277.63L516.585 278.612L513.773 279.484L510.875 280.245L507.79 280.884L504.717 281.424L501.568 281.754L498.431 281.986L495.318 282.019L492.216 281.954L489.125 281.789L486.047 281.526L482.992 281.065L479.948 280.505L476.928 279.747L473.92 278.89L471.01 278.045L468.025 276.991L465.261 275.761L462.398 274.521L459.757 273.105L457.016 271.678L454.497 270.077L451.978 268.475L449.482 266.676L447.195 264.801L444.921 262.827L442.745 260.865L440.691 258.716L438.65 256.469L436.806 254.245L435.072 251.934L433.45 249.535L431.938 247.05L430.536 244.477L429.344 241.828L428.251 239.191L427.269 236.467L426.496 233.668L425.811 230.979L425.335 228.214L425.045 225.572L424.865 222.842L424.872 220.235L425.077 217.651L425.381 215.079L425.784 212.518L426.384 209.981L427.171 207.566L427.946 205.25Z" fill="#FFD731" stroke="black" stroke-width="2.40115" stroke-linejoin="bevel"/>
<path fill-rule="evenodd" clip-rule="evenodd" d="M427.948 205.25C425.251 211.954 422.303 218.226 420.583 225.145C418.465 237.133 420.295 246.277 425.435 257.115C436.861 278.427 457.859 291.74 483.913 294.515C507.116 295.951 528.17 288.406 539.882 268.222L541.053 265.953L546.255 253.327L545.085 255.596C532.761 276.71 510.136 283.97 486.049 281.526C467.322 278.713 453.038 271.409 440.694 258.717C432.177 249.285 427.485 240.605 425.337 228.214C424.525 221.498 424.789 216.714 426.386 209.981L427.173 207.566L427.948 205.25Z" fill="#FFD731" stroke="black" stroke-width="2.40115" stroke-linejoin="bevel"/>
<path fill-rule="evenodd" clip-rule="evenodd" d="M491.715 294.637C511.269 293.837 529.786 285.691 539.873 268.225L541.044 265.955L546.246 253.329L545.076 255.598C534.744 273.437 516.844 281.455 497.028 281.923L491.715 294.637Z" fill="black" stroke="black" stroke-width="2.40115" stroke-linejoin="bevel"/>
<path fill-rule="evenodd" clip-rule="evenodd" d="M470.458 174.864C437.114 179.453 417.816 206.966 427.272 236.471C436.739 265.876 471.376 286.016 504.719 281.427C538.063 276.838 557.373 249.226 547.906 219.82C538.45 190.316 503.801 170.275 470.458 174.864Z" fill="#FFD731" stroke="black" stroke-width="2.40115"/>
<path fill-rule="evenodd" clip-rule="evenodd" d="M472.155 179.977C442.071 184.149 424.583 209.067 433.179 235.662C441.688 262.145 472.938 280.381 503.023 276.209C533.107 272.038 550.595 247.119 542.086 220.635C533.49 194.041 502.228 175.905 472.155 179.977Z" fill="#FFD731" stroke="black" stroke-width="2.40115"/>
<path fill-rule="evenodd" clip-rule="evenodd" d="M472.279 181.499C442.614 185.519 425.469 210.077 433.815 236.24C442.26 262.416 473.051 280.296 502.728 276.177C532.294 272.145 549.537 247.598 541.092 221.423C532.746 195.26 501.857 177.368 472.279 181.499Z" fill="#FFD731" stroke="black" stroke-width="2.40115"/>
<path fill-rule="evenodd" clip-rule="evenodd" d="M419.782 230.581C420.085 228.009 421.396 224.553 425.004 226.283C425.004 226.283 423.836 221.731 424.064 218.949C424.351 215.673 425.376 213.788 425.446 213.194C425.93 209.941 422.085 220.421 422.073 220.52C421.048 222.405 419.758 230.779 419.782 230.581Z" fill="black" stroke="black" stroke-width="2.40115"/>
<path fill-rule="evenodd" clip-rule="evenodd" d="M458.194 227.071C467.187 254.067 493.431 257.262 494.569 248.437C495.297 242.184 483.336 211.027 484.387 208.654C485.002 207.045 487.882 207.129 489.746 208.517C492.018 210.302 500.836 218.708 503.403 221.034C506.913 224.193 509.367 226.664 512.469 229.426C514.1 231.012 521.444 236.71 516.864 238.709C515.049 239.405 507.136 240.369 504.423 240.787C493.587 242.643 501.508 255.269 514.087 250.355C531.503 243.521 514.89 212.001 494.895 204.356C490.249 202.555 484.354 202.255 482.187 204.732C479.779 207.314 482.102 212.714 483.202 216.925C484.318 221.32 485.569 225.848 486.684 230.243C487.943 234.863 489.187 239.298 490.318 243.878C491.82 249.924 487.72 250.181 483.761 244.633C481.646 241.727 462.82 216.629 462.387 214.425C461.648 210.057 470.551 214.979 473.597 215.564C484.5 217.508 478.269 201.177 463.671 207.355C456.922 210.3 454.892 217.408 458.194 227.071Z" fill="black" stroke="black" stroke-width="2.40115"/>
<path fill-rule="evenodd" clip-rule="evenodd" d="M-18.7045 486.672L-23.8081 499.31L-24.6938 501.714L-25.4805 504.128L-26.0693 506.567L-26.472 509.127L-26.7757 511.699L-26.9806 514.283L-26.9875 516.891L-26.8083 519.62L-26.5184 522.262L-26.0424 525.027L-25.3685 527.815L-24.584 530.516L-23.6016 533.24L-22.5087 535.877L-21.2178 538.537L-19.9153 541.098L-18.4032 543.584L-16.7805 545.982L-15.0472 548.294L-13.1161 550.628L-11.1615 552.765L-9.10809 554.913L-6.94401 556.974L-4.65765 558.849L-2.37128 560.724L0.124639 562.524L2.63224 564.224L5.26213 565.738L7.89202 567.253L10.6442 568.581L13.3964 569.909L16.2709 571.051L19.1571 572.094L22.0549 573.038L25.0751 573.796L28.0952 574.554L31.1387 575.114L34.1939 575.575L37.2608 575.937L40.351 576.101L43.5519 576.178L46.6772 576.046L49.8141 575.814L52.8639 575.472L56.0242 575.043L59.01 574.393L61.9086 573.631L64.72 572.76L67.4441 571.777L70.0926 570.585L72.6422 569.382L75.0056 568.056L77.3807 566.631L79.5696 565.084L81.7702 563.438L83.674 561.757L85.5895 559.977L87.4177 558.086L89.0598 556.073L90.504 554.037L91.9598 551.902L93.2295 549.644L94.4003 547.375L99.6028 534.748L98.4321 537.017L97.1741 539.176L95.7182 541.311L94.1751 543.336L92.533 545.349L90.8037 547.251L88.8882 549.031L86.8738 550.799L84.7721 552.457L82.5832 554.004L80.2081 555.429L77.8447 556.755L75.2951 557.959L72.6583 559.052L69.9342 560.034L67.1229 560.906L64.2243 561.667L61.1395 562.306L58.0664 562.846L54.9178 563.176L51.7808 563.407L48.6672 563.441L45.5653 563.376L42.475 563.211L39.3965 562.948L36.3413 562.487L33.2977 561.927L30.2776 561.169L27.2691 560.312L24.3596 559.467L21.3745 558.413L18.6106 557.183L15.7478 555.942L13.1062 554.527L10.3657 553.1L7.84646 551.499L5.32718 549.897L2.83127 548.098L0.544902 546.223L-1.72979 544.249L-3.90554 542.287L-5.959 540.138L-8.00078 537.891L-9.84469 535.667L-11.578 533.356L-13.2007 530.957L-14.7127 528.471L-16.1142 525.899L-17.3061 523.25L-18.3991 520.613L-19.3815 517.889L-20.1543 515.089L-20.8399 512.4L-21.3159 509.636L-21.6057 506.993L-21.785 504.264L-21.778 501.657L-21.5732 499.073L-21.2695 496.501L-20.8668 493.94L-20.2662 491.403L-19.4795 488.988L-18.7045 486.672Z" fill="#FFD731" stroke="black" stroke-width="2.40115" stroke-linejoin="bevel"/>
<path fill-rule="evenodd" clip-rule="evenodd" d="M-18.7023 486.672C-21.3998 493.375 -24.3473 499.648 -26.0672 506.567C-28.185 518.555 -26.3557 527.698 -21.2157 538.537C-9.78899 559.848 11.2089 573.162 37.2629 575.937C60.4658 577.373 81.5193 569.828 93.2317 549.644L94.4024 547.375L99.605 534.748L98.4342 537.018C86.1104 558.132 63.4857 565.391 39.3986 562.948C20.6717 560.135 6.38727 552.831 -5.95685 540.138C-14.473 530.707 -19.1658 522.027 -21.3137 509.636C-22.1256 502.92 -21.8616 498.136 -20.2641 491.403L-19.4774 488.988L-18.7023 486.672Z" fill="#FFD731" stroke="black" stroke-width="2.40115" stroke-linejoin="bevel"/>
<path fill-rule="evenodd" clip-rule="evenodd" d="M45.0661 576.06C64.621 575.26 83.1373 567.114 93.2247 549.647L94.3955 547.378L99.598 534.752L98.4273 537.021C88.0952 554.86 70.1959 562.878 50.3793 563.346L45.0661 576.06Z" fill="black" stroke="black" stroke-width="2.40115" stroke-linejoin="bevel"/>
<path fill-rule="evenodd" clip-rule="evenodd" d="M23.8094 456.286C-9.5342 460.876 -28.8329 488.389 -19.3769 517.894C-9.90916 547.299 24.7274 567.439 58.071 562.85C91.4146 558.261 110.725 530.649 101.257 501.243C91.8012 471.738 57.153 451.697 23.8094 456.286Z" fill="#FFD731" stroke="black" stroke-width="2.40115"/>
<path fill-rule="evenodd" clip-rule="evenodd" d="M25.507 461.399C-4.57737 465.57 -22.065 490.489 -13.469 517.083C-4.96032 543.567 26.2899 561.802 56.3743 557.631C86.4586 553.46 103.946 528.541 95.4375 502.057C86.8416 475.463 55.5796 457.327 25.507 461.399Z" fill="#FFD731" stroke="black" stroke-width="2.40115"/>
<path fill-rule="evenodd" clip-rule="evenodd" d="M25.6303 462.921C-4.03491 466.941 -21.179 491.499 -12.8331 517.662C-4.38829 543.838 26.4023 561.718 56.0793 557.599C85.6456 553.567 102.889 529.02 94.4438 502.845C86.0979 476.681 55.2083 458.79 25.6303 462.921Z" fill="#FFD731" stroke="black" stroke-width="2.40115"/>
<path fill-rule="evenodd" clip-rule="evenodd" d="M11.5457 508.494C20.5381 535.49 46.7822 538.685 47.9207 529.86C48.6489 523.607 36.6872 492.45 37.7385 490.077C38.3539 488.468 41.2335 488.552 43.0976 489.94C45.3694 491.725 54.1875 500.13 56.7542 502.457C60.2645 505.616 62.7184 508.087 65.821 510.849C67.4518 512.435 74.7955 518.133 70.2159 520.131C68.4005 520.828 60.4876 521.792 57.7747 522.21C46.9386 524.066 54.8592 536.692 67.4389 531.777C84.8547 524.944 68.2416 493.424 48.2464 485.779C43.6002 483.977 37.7052 483.678 35.5385 486.155C33.1307 488.737 35.4539 494.137 36.5539 498.348C37.6693 502.743 38.9205 507.271 40.0359 511.666C41.2949 516.286 42.5385 520.721 43.6693 525.301C45.1719 531.347 41.0718 531.604 37.1128 526.056C34.9974 523.15 16.1715 498.052 15.7381 495.848C14.9997 491.479 23.9024 496.402 26.9486 496.987C37.8513 498.93 31.6205 482.6 17.0228 488.778C10.2739 491.723 8.2431 498.831 11.5457 508.494Z" fill="black" stroke="black" stroke-width="2.40115"/>
<path fill-rule="evenodd" clip-rule="evenodd" d="M279.574 386.253L264.613 392.17L261.837 393.367L259.132 394.659L256.567 396.139L254.05 397.878L251.603 399.711L249.226 401.638L246.991 403.753L244.802 406.127L242.778 408.524L240.801 411.18L238.965 414.025L237.293 416.893L235.763 419.949L234.397 423.029L233.172 426.297L232.041 429.495L231.145 432.81L230.414 436.149L229.847 439.512L229.422 443.063L229.184 446.472L229.017 449.976L229.015 453.504L229.272 456.985L229.528 460.466L230.02 464.064L230.605 467.592L231.45 471.073L232.294 474.554L233.397 477.989L234.5 481.423L235.862 484.81L237.318 488.127L238.868 491.373L240.677 494.573L242.486 497.772L244.483 500.831L246.574 503.819L248.759 506.737L251.133 509.513L253.671 512.313L256.327 514.879L259.077 517.373L261.85 519.703L264.789 522.057L267.774 524.081L270.783 525.941L273.816 527.636L276.872 529.167L280.046 530.462L283.15 531.664L286.206 532.606L289.357 533.478L292.461 534.092L295.659 534.635L298.645 534.895L301.726 535.085L304.83 535.111L307.888 534.878L310.804 534.456L313.815 533.964L316.778 533.214L319.672 532.369L334.703 526.546L331.81 527.391L328.94 528.071L325.93 528.563L322.943 528.89L319.885 529.124L316.852 529.192L313.771 529.002L310.62 528.718L307.492 528.269L304.388 527.656L301.238 526.783L298.181 525.841L295.077 524.639L291.997 523.273L288.941 521.743L285.908 520.048L282.899 518.188L279.844 516.069L276.882 513.88L274.038 511.456L271.288 508.962L268.726 506.326L266.258 503.62L263.885 500.843L261.606 497.996L259.514 495.008L257.517 491.95L255.709 488.75L253.994 485.48L252.35 482.304L250.823 478.893L249.626 475.53L248.358 472.072L247.42 468.661L246.411 465.156L245.731 461.699L245.051 458.241L244.56 454.643L244.303 451.162L244.141 447.611L244.049 444.154L244.216 440.65L244.477 437.075L244.879 433.689L245.445 430.326L246.176 426.987L247.072 423.672L248.133 420.38L249.428 417.206L250.794 414.126L252.325 411.07L254.09 408.131L255.832 405.357L257.809 402.701L259.834 400.304L262.022 397.93L264.258 395.815L266.634 393.888L269.081 392.055L271.599 390.316L274.257 388.766L276.962 387.474L279.574 386.253Z" fill="#FFD731" stroke="black" stroke-width="2.83425" stroke-linejoin="bevel"/>
<path fill-rule="evenodd" clip-rule="evenodd" d="M279.575 386.255C271.648 389.401 263.885 391.983 256.569 396.141C244.593 404.082 238.261 413.086 233.173 426.299C224.243 453.409 229.939 482.198 248.761 506.739C266.409 527.751 289.99 539.619 316.78 533.216L319.673 532.371L334.705 526.548L331.811 527.393C303.727 534.03 279.113 520.586 261.607 497.998C248.778 479.694 243.404 461.535 244.217 440.652C245.356 425.695 248.961 414.621 257.811 402.703C262.895 396.545 267.201 392.879 274.259 388.768L276.964 387.476L279.575 386.255Z" fill="#FFD731" stroke="black" stroke-width="2.83425" stroke-linejoin="bevel"/>
<path fill-rule="evenodd" clip-rule="evenodd" d="M255.004 513.511C271.597 529.584 293.627 538.794 316.772 533.211L319.665 532.367L334.696 526.544L331.803 527.389C308.141 533.065 286.722 524.279 270.2 507.712L255.004 513.511Z" fill="black" stroke="black" stroke-width="2.83425" stroke-linejoin="bevel"/>
<path fill-rule="evenodd" clip-rule="evenodd" d="M340.146 397.891C309.095 373.108 269.864 378.985 252.323 411.076C234.876 443.095 245.83 489.102 276.88 513.886C307.931 538.67 347.256 532.721 364.703 500.702C382.244 468.612 371.196 422.675 340.146 397.891Z" fill="#FFD731" stroke="black" stroke-width="2.83425"/>
<path fill-rule="evenodd" clip-rule="evenodd" d="M337.154 403.503C309.112 381.168 273.574 386.483 257.822 415.47C242.094 444.293 251.921 485.854 279.963 508.19C308.005 530.526 343.543 525.21 359.272 496.388C375.023 467.401 365.102 425.91 337.154 403.503Z" fill="#FFD731" stroke="black" stroke-width="2.83425"/>
<path fill-rule="evenodd" clip-rule="evenodd" d="M335.953 404.846C308.381 382.745 273.431 388.062 257.844 416.484C242.328 445.001 252.085 485.88 279.751 507.91C307.253 529.917 342.274 524.695 357.79 496.178C373.376 467.755 363.549 426.782 335.953 404.846Z" fill="#FFD731" stroke="black" stroke-width="2.83425"/>
<path fill-rule="evenodd" clip-rule="evenodd" d="M251.267 399.877C253.714 398.044 257.736 396.354 259.192 400.846C259.192 400.846 262.134 396.145 264.699 394.077C267.734 391.657 270.181 391 270.745 390.577C273.922 388.344 261.83 393.581 261.736 393.652C259.29 394.309 251.079 400.018 251.267 399.877Z" fill="black" stroke="black" stroke-width="2.83425"/>
<path fill-rule="evenodd" clip-rule="evenodd" d="M285.519 429.875C269.747 459.527 288.365 484.572 296.838 478.366C302.779 473.902 319.694 438.325 322.579 437.293C324.456 436.511 326.727 439.041 327.056 441.765C327.378 445.16 327.363 459.54 327.461 463.627C327.615 469.199 327.498 473.308 327.66 478.209C327.63 480.894 328.731 491.81 323.297 489.519C321.224 488.533 313.962 482.55 311.398 480.57C300.995 472.813 296.64 489.858 311.077 496.619C331.09 505.954 344.532 466.103 334.803 442.783C332.564 437.344 328.025 432.059 324.144 432.221C319.976 432.262 317.248 438.642 314.542 443.008C311.69 447.538 308.836 452.292 305.984 456.821C303.057 461.656 300.276 466.328 297.279 471.021C293.331 477.224 289.775 473.927 291.299 466.028C292.063 461.855 298.213 425.336 299.746 423.172C302.881 418.987 305.914 430.605 307.892 433.686C315.099 444.592 323.997 425.978 306.837 418.519C298.829 415.143 291.097 419.189 285.519 429.875Z" fill="black" stroke="black" stroke-width="2.83425"/>
<path fill-rule="evenodd" clip-rule="evenodd" d="M-3.53792 136.291L-16.0352 141.233L-18.3539 142.234L-20.6137 143.313L-22.7558 144.549L-24.8587 146.001L-26.9028 147.532L-28.8879 149.142L-30.7553 150.909L-32.5835 152.892L-34.2743 154.894L-35.9258 157.113L-37.4596 159.489L-38.856 161.885L-40.1345 164.438L-41.2755 167.011L-42.2988 169.741L-43.2435 172.412L-43.9917 175.181L-44.6025 177.97L-45.0758 180.779L-45.4313 183.745L-45.6295 186.594L-45.7689 189.521L-45.7708 192.467L-45.5566 195.375L-45.3423 198.283L-44.9317 201.289L-44.4425 204.236L-43.7371 207.143L-43.0318 210.051L-42.1103 212.92L-41.1888 215.789L-40.0512 218.618L-38.835 221.389L-37.5402 224.101L-36.0292 226.774L-34.5183 229.446L-32.8501 232.001L-31.1033 234.497L-29.2779 236.934L-27.2953 239.254L-25.1751 241.593L-22.9566 243.735L-20.6595 245.819L-18.3427 247.765L-15.8883 249.732L-13.3945 251.423L-10.881 252.976L-8.34771 254.392L-5.79471 255.671L-3.14335 256.753L-0.55088 257.756L2.00244 258.544L4.63438 259.272L7.22717 259.785L9.89857 260.238L12.3933 260.456L14.9667 260.615L17.5598 260.636L20.1137 260.441L22.5499 260.089L25.0647 259.678L27.5404 259.051L29.9571 258.346L42.5132 253.482L40.0965 254.187L37.6995 254.755L35.1847 255.166L32.6896 255.44L30.1356 255.635L27.6014 255.692L25.0281 255.533L22.3958 255.296L19.7833 254.921L17.1905 254.408L14.5586 253.68L12.0052 252.892L9.41278 251.889L6.84004 250.748L4.28703 249.469L1.75376 248.053L-0.759785 246.5L-3.31247 244.73L-5.78655 242.902L-8.16228 240.877L-10.4594 238.793L-12.5993 236.591L-14.6605 234.331L-16.6432 232.011L-18.5472 229.633L-20.294 227.137L-21.9622 224.582L-23.4731 221.91L-24.9054 219.178L-26.2789 216.525L-27.554 213.676L-28.5541 210.866L-29.613 207.978L-30.397 205.129L-31.2399 202.201L-31.8077 199.313L-32.3756 196.425L-32.7862 193.419L-33.0004 190.511L-33.1361 187.545L-33.2128 184.657L-33.0734 181.73L-32.8554 178.744L-32.5196 175.915L-32.0464 173.106L-31.4356 170.317L-30.6873 167.548L-29.8016 164.798L-28.7194 162.147L-27.5784 159.574L-26.2998 157.021L-24.8249 154.566L-23.3697 152.249L-21.7181 150.03L-20.0274 148.028L-18.1992 146.045L-16.3318 144.278L-14.3466 142.668L-12.3026 141.137L-10.1997 139.685L-7.97899 138.39L-5.71915 137.311L-3.53792 136.291Z" fill="#FFD731" stroke="black" stroke-width="2.36753" stroke-linejoin="bevel"/>
<path fill-rule="evenodd" clip-rule="evenodd" d="M-3.53664 136.292C-10.1586 138.921 -16.6428 141.077 -22.7545 144.551C-32.758 151.184 -38.0472 158.705 -42.2975 169.742C-49.7574 192.388 -44.999 216.436 -29.2766 236.936C-14.5346 254.488 5.1628 264.402 27.5416 259.053L29.9584 258.347L42.5145 253.483L40.0978 254.189C16.6383 259.734 -3.92258 248.503 -18.5459 229.635C-29.2622 214.344 -33.7512 199.176 -33.0721 181.732C-32.1212 169.238 -29.1096 159.987 -21.7168 150.032C-17.4703 144.888 -13.8733 141.826 -7.9777 138.392L-5.71786 137.313L-3.53664 136.292Z" fill="#FFD731" stroke="black" stroke-width="2.36753" stroke-linejoin="bevel"/>
<path fill-rule="evenodd" clip-rule="evenodd" d="M-24.0622 242.593C-10.2015 256.02 8.20071 263.712 27.5342 259.049L29.9509 258.344L42.507 253.48L40.0903 254.185C20.3246 258.927 2.43288 251.588 -11.3686 237.749L-24.0622 242.593Z" fill="black" stroke="black" stroke-width="2.36753" stroke-linejoin="bevel"/>
<path fill-rule="evenodd" clip-rule="evenodd" d="M47.0588 146.011C21.1212 125.309 -11.6494 130.219 -26.3019 157.025C-40.8758 183.771 -31.7262 222.202 -5.78863 242.905C20.1489 263.608 52.9982 258.639 67.572 231.892C82.2245 205.086 72.9963 166.714 47.0588 146.011Z" fill="#FFD731" stroke="black" stroke-width="2.36753"/>
<path fill-rule="evenodd" clip-rule="evenodd" d="M44.559 150.699C21.1347 132.042 -8.55143 136.482 -21.7093 160.696C-34.8473 184.772 -26.6383 219.489 -3.21402 238.147C20.2103 256.805 49.8964 252.365 63.0345 228.288C76.1923 204.075 67.9047 169.416 44.559 150.699Z" fill="#FFD731" stroke="black" stroke-width="2.36753"/>
<path fill-rule="evenodd" clip-rule="evenodd" d="M43.5565 151.822C20.5249 133.361 -8.67009 137.802 -21.6901 161.544C-34.6512 185.365 -26.5008 219.512 -3.39061 237.915C19.5821 256.297 48.8359 251.935 61.7971 228.114C74.8171 204.372 66.6078 170.146 43.5565 151.822Z" fill="#FFD731" stroke="black" stroke-width="2.36753"/>
<path fill-rule="evenodd" clip-rule="evenodd" d="M1.42803 172.729C-11.7473 197.499 3.80485 218.419 10.8832 213.235C15.8452 209.506 29.9753 179.788 32.3852 178.926C33.9527 178.273 35.8497 180.387 36.1247 182.662C36.3935 185.498 36.3811 197.509 36.4635 200.924C36.5922 205.578 36.4943 209.011 36.6292 213.105C36.6045 215.347 37.5242 224.466 32.9845 222.552C31.2532 221.729 25.1873 216.73 23.0451 215.076C14.355 208.597 10.7174 222.835 22.7773 228.483C39.4943 236.281 50.7232 202.992 42.5965 183.512C40.7262 178.969 36.9342 174.554 33.6921 174.689C30.2111 174.724 27.932 180.053 25.6714 183.7C23.2893 187.484 20.9051 191.455 18.523 195.239C16.078 199.278 13.7546 203.18 11.2509 207.1C7.95323 212.282 4.98306 209.528 6.25602 202.929C6.89455 199.443 12.0317 168.938 13.3118 167.13C15.9308 163.634 18.4643 173.339 20.1162 175.913C26.1369 185.023 33.5696 169.474 19.2357 163.244C12.5456 160.423 6.08724 163.803 1.42803 172.729Z" fill="black" stroke="black" stroke-width="2.36753"/>
</g>
<rect x="1" y="1" width="536" height="536" rx="19" stroke="black" stroke-width="2"/>
<defs>
<clipPath id="clip0_6058_5681">
<rect width="538" height="538" rx="20" fill="white"/>
</clipPath>
<clipPath id="clip1_6058_5681">
<rect width="183.179" height="183.179" fill="white" transform="translate(377.664 17.7148) rotate(103.973)"/>
</clipPath>
<clipPath id="clip2_6058_5681">
<rect width="137.885" height="137.885" fill="white" transform="translate(84.6797 -26.6582) rotate(41.1314)"/>
</clipPath>
<clipPath id="clip3_6058_5681">
<rect width="137.885" height="137.885" fill="white" transform="translate(448.551 439.492) rotate(41.1314)"/>
</clipPath>
<clipPath id="clip4_6058_5681">
<rect width="120.039" height="120.039" fill="white" transform="translate(443.959 292.805) rotate(41.1314)"/>
</clipPath>
</defs>
</svg>
